ISO-10303-21;
HEADER;
/* Generated by software containing ST-Developer
 * from STEP Tools, Inc. (www.steptools.com) 
 */

FILE_DESCRIPTION(
/* description */ ('',
'CAx-IF Rec.Pracs.---Representation and Presentation of Product Manufa
cturing Information (PMI)---4.0---2014-10-13'),
/* implementation_level */ '2;1');

FILE_NAME(
/* name */ 'Seaflo 21 Series Mount v5.step',
/* time_stamp */ '2025-03-15T11:06:01-05:00',
/* author */ (''),
/* organization */ (''),
/* preprocessor_version */ 'ST-DEVELOPER v20',
/* originating_system */ 'Autodesk Translation Framework v13.20.0.188',

/* authorisation */ '');

FILE_SCHEMA (('AP242_MANAGED_MODEL_BASED_3D_ENGINEERING_MIM_LF { 1 0 10303 442 1 1 4 }'));
ENDSEC;

DATA;
#10=MECHANICAL_DESIGN_GEOMETRIC_PRESENTATION_REPRESENTATION('',(#13),#747);
#11=SHAPE_REPRESENTATION_RELATIONSHIP('SRR','None',#754,#12);
#12=ADVANCED_BREP_SHAPE_REPRESENTATION('',(#14),#746);
#13=STYLED_ITEM('',(#763),#14);
#14=MANIFOLD_SOLID_BREP('Body1',#427);
#15=CONICAL_SURFACE('',#471,2.8,0.785398163397449);
#16=CONICAL_SURFACE('',#475,2.8,0.785398163397449);
#17=CONICAL_SURFACE('',#479,2.79999999999999,0.785398163397447);
#18=CONICAL_SURFACE('',#483,2.79999999999999,0.785398163397447);
#19=FACE_BOUND('',#67,.T.);
#20=FACE_BOUND('',#68,.T.);
#21=FACE_BOUND('',#69,.T.);
#22=FACE_BOUND('',#70,.T.);
#23=FACE_BOUND('',#71,.T.);
#24=FACE_BOUND('',#72,.T.);
#25=FACE_BOUND('',#81,.T.);
#26=FACE_BOUND('',#84,.T.);
#27=FACE_BOUND('',#97,.T.);
#28=FACE_BOUND('',#98,.T.);
#29=FACE_BOUND('',#99,.T.);
#30=FACE_BOUND('',#100,.T.);
#31=FACE_BOUND('',#101,.T.);
#32=FACE_BOUND('',#102,.T.);
#33=PLANE('',#444);
#34=PLANE('',#454);
#35=PLANE('',#459);
#36=PLANE('',#462);
#37=PLANE('',#465);
#38=PLANE('',#469);
#39=PLANE('',#491);
#40=PLANE('',#492);
#41=FACE_OUTER_BOUND('',#65,.T.);
#42=FACE_OUTER_BOUND('',#66,.T.);
#43=FACE_OUTER_BOUND('',#73,.T.);
#44=FACE_OUTER_BOUND('',#74,.T.);
#45=FACE_OUTER_BOUND('',#75,.T.);
#46=FACE_OUTER_BOUND('',#76,.T.);
#47=FACE_OUTER_BOUND('',#77,.T.);
#48=FACE_OUTER_BOUND('',#78,.T.);
#49=FACE_OUTER_BOUND('',#79,.T.);
#50=FACE_OUTER_BOUND('',#80,.T.);
#51=FACE_OUTER_BOUND('',#82,.T.);
#52=FACE_OUTER_BOUND('',#83,.T.);
#53=FACE_OUTER_BOUND('',#85,.T.);
#54=FACE_OUTER_BOUND('',#86,.T.);
#55=FACE_OUTER_BOUND('',#87,.T.);
#56=FACE_OUTER_BOUND('',#88,.T.);
#57=FACE_OUTER_BOUND('',#89,.T.);
#58=FACE_OUTER_BOUND('',#90,.T.);
#59=FACE_OUTER_BOUND('',#91,.T.);
#60=FACE_OUTER_BOUND('',#92,.T.);
#61=FACE_OUTER_BOUND('',#93,.T.);
#62=FACE_OUTER_BOUND('',#94,.T.);
#63=FACE_OUTER_BOUND('',#95,.T.);
#64=FACE_OUTER_BOUND('',#96,.T.);
#65=EDGE_LOOP('',(#279,#280,#281,#282));
#66=EDGE_LOOP('',(#283,#284,#285,#286,#287,#288,#289,#290));
#67=EDGE_LOOP('',(#291));
#68=EDGE_LOOP('',(#292));
#69=EDGE_LOOP('',(#293));
#70=EDGE_LOOP('',(#294));
#71=EDGE_LOOP('',(#295));
#72=EDGE_LOOP('',(#296));
#73=EDGE_LOOP('',(#297,#298,#299,#300));
#74=EDGE_LOOP('',(#301,#302,#303,#304));
#75=EDGE_LOOP('',(#305,#306,#307,#308));
#76=EDGE_LOOP('',(#309,#310,#311,#312));
#77=EDGE_LOOP('',(#313,#314,#315,#316));
#78=EDGE_LOOP('',(#317,#318,#319,#320));
#79=EDGE_LOOP('',(#321,#322,#323,#324));
#80=EDGE_LOOP('',(#325));
#81=EDGE_LOOP('',(#326));
#82=EDGE_LOOP('',(#327,#328,#329,#330));
#83=EDGE_LOOP('',(#331));
#84=EDGE_LOOP('',(#332));
#85=EDGE_LOOP('',(#333,#334,#335,#336));
#86=EDGE_LOOP('',(#337,#338,#339,#340));
#87=EDGE_LOOP('',(#341,#342,#343,#344));
#88=EDGE_LOOP('',(#345,#346,#347,#348));
#89=EDGE_LOOP('',(#349,#350,#351,#352));
#90=EDGE_LOOP('',(#353,#354,#355,#356));
#91=EDGE_LOOP('',(#357,#358,#359,#360));
#92=EDGE_LOOP('',(#361,#362,#363,#364));
#93=EDGE_LOOP('',(#365,#366,#367,#368));
#94=EDGE_LOOP('',(#369,#370,#371,#372));
#95=EDGE_LOOP('',(#373,#374,#375,#376));
#96=EDGE_LOOP('',(#377,#378,#379,#380,#381,#382,#383,#384));
#97=EDGE_LOOP('',(#385));
#98=EDGE_LOOP('',(#386));
#99=EDGE_LOOP('',(#387));
#100=EDGE_LOOP('',(#388));
#101=EDGE_LOOP('',(#389));
#102=EDGE_LOOP('',(#390));
#103=LINE('',#633,#131);
#104=LINE('',#636,#132);
#105=LINE('',#639,#133);
#106=LINE('',#643,#134);
#107=LINE('',#647,#135);
#108=LINE('',#650,#136);
#109=LINE('',#665,#137);
#110=LINE('',#666,#138);
#111=LINE('',#670,#139);
#112=LINE('',#673,#140);
#113=LINE('',#676,#141);
#114=LINE('',#679,#142);
#115=LINE('',#680,#143);
#116=LINE('',#683,#144);
#117=LINE('',#686,#145);
#118=LINE('',#689,#146);
#119=LINE('',#696,#147);
#120=LINE('',#703,#148);
#121=LINE('',#707,#149);
#122=LINE('',#711,#150);
#123=LINE('',#715,#151);
#124=LINE('',#719,#152);
#125=LINE('',#723,#153);
#126=LINE('',#727,#154);
#127=LINE('',#731,#155);
#128=LINE('',#735,#156);
#129=LINE('',#739,#157);
#130=LINE('',#742,#158);
#131=VECTOR('',#499,10.);
#132=VECTOR('',#502,10.);
#133=VECTOR('',#505,10.);
#134=VECTOR('',#508,10.);
#135=VECTOR('',#511,10.);
#136=VECTOR('',#514,10.);
#137=VECTOR('',#529,10.);
#138=VECTOR('',#530,10.);
#139=VECTOR('',#535,10.);
#140=VECTOR('',#538,10.);
#141=VECTOR('',#541,10.);
#142=VECTOR('',#544,10.);
#143=VECTOR('',#545,10.);
#144=VECTOR('',#548,10.);
#145=VECTOR('',#553,10.);
#146=VECTOR('',#556,4.25);
#147=VECTOR('',#565,4.25);
#148=VECTOR('',#574,2.8);
#149=VECTOR('',#579,2.3);
#150=VECTOR('',#584,2.8);
#151=VECTOR('',#589,2.3);
#152=VECTOR('',#594,2.79999999999999);
#153=VECTOR('',#599,2.3);
#154=VECTOR('',#604,2.79999999999999);
#155=VECTOR('',#609,2.3);
#156=VECTOR('',#614,2.25);
#157=VECTOR('',#619,2.25);
#158=VECTOR('',#624,10.);
#159=CIRCLE('',#442,3.);
#160=CIRCLE('',#443,3.);
#161=CIRCLE('',#445,3.);
#162=CIRCLE('',#446,3.);
#163=CIRCLE('',#447,3.);
#164=CIRCLE('',#448,4.25);
#165=CIRCLE('',#449,4.25);
#166=CIRCLE('',#450,3.3);
#167=CIRCLE('',#451,3.29999999999999);
#168=CIRCLE('',#452,3.29999999999999);
#169=CIRCLE('',#453,3.3);
#170=CIRCLE('',#456,3.);
#171=CIRCLE('',#458,3.);
#172=CIRCLE('',#461,3.);
#173=CIRCLE('',#464,4.25);
#174=CIRCLE('',#466,2.25);
#175=CIRCLE('',#468,4.25);
#176=CIRCLE('',#470,2.25);
#177=CIRCLE('',#472,2.3);
#178=CIRCLE('',#474,2.3);
#179=CIRCLE('',#476,2.3);
#180=CIRCLE('',#478,2.3);
#181=CIRCLE('',#480,2.3);
#182=CIRCLE('',#482,2.3);
#183=CIRCLE('',#484,2.3);
#184=CIRCLE('',#486,2.3);
#185=CIRCLE('',#488,2.25);
#186=CIRCLE('',#490,2.25);
#187=VERTEX_POINT('',#629);
#188=VERTEX_POINT('',#630);
#189=VERTEX_POINT('',#632);
#190=VERTEX_POINT('',#634);
#191=VERTEX_POINT('',#638);
#192=VERTEX_POINT('',#640);
#193=VERTEX_POINT('',#642);
#194=VERTEX_POINT('',#644);
#195=VERTEX_POINT('',#646);
#196=VERTEX_POINT('',#648);
#197=VERTEX_POINT('',#651);
#198=VERTEX_POINT('',#653);
#199=VERTEX_POINT('',#655);
#200=VERTEX_POINT('',#657);
#201=VERTEX_POINT('',#659);
#202=VERTEX_POINT('',#661);
#203=VERTEX_POINT('',#664);
#204=VERTEX_POINT('',#668);
#205=VERTEX_POINT('',#672);
#206=VERTEX_POINT('',#674);
#207=VERTEX_POINT('',#678);
#208=VERTEX_POINT('',#682);
#209=VERTEX_POINT('',#688);
#210=VERTEX_POINT('',#692);
#211=VERTEX_POINT('',#695);
#212=VERTEX_POINT('',#699);
#213=VERTEX_POINT('',#702);
#214=VERTEX_POINT('',#706);
#215=VERTEX_POINT('',#710);
#216=VERTEX_POINT('',#714);
#217=VERTEX_POINT('',#718);
#218=VERTEX_POINT('',#722);
#219=VERTEX_POINT('',#726);
#220=VERTEX_POINT('',#730);
#221=VERTEX_POINT('',#734);
#222=VERTEX_POINT('',#738);
#223=EDGE_CURVE('',#187,#188,#159,.T.);
#224=EDGE_CURVE('',#188,#189,#103,.T.);
#225=EDGE_CURVE('',#189,#190,#160,.T.);
#226=EDGE_CURVE('',#190,#187,#104,.T.);
#227=EDGE_CURVE('',#191,#189,#105,.T.);
#228=EDGE_CURVE('',#192,#191,#161,.T.);
#229=EDGE_CURVE('',#193,#192,#106,.T.);
#230=EDGE_CURVE('',#194,#193,#162,.T.);
#231=EDGE_CURVE('',#194,#195,#107,.T.);
#232=EDGE_CURVE('',#196,#195,#163,.T.);
#233=EDGE_CURVE('',#196,#190,#108,.T.);
#234=EDGE_CURVE('',#197,#197,#164,.T.);
#235=EDGE_CURVE('',#198,#198,#165,.T.);
#236=EDGE_CURVE('',#199,#199,#166,.T.);
#237=EDGE_CURVE('',#200,#200,#167,.T.);
#238=EDGE_CURVE('',#201,#201,#168,.T.);
#239=EDGE_CURVE('',#202,#202,#169,.T.);
#240=EDGE_CURVE('',#188,#203,#109,.T.);
#241=EDGE_CURVE('',#191,#203,#110,.T.);
#242=EDGE_CURVE('',#203,#204,#170,.T.);
#243=EDGE_CURVE('',#204,#192,#111,.T.);
#244=EDGE_CURVE('',#195,#205,#112,.T.);
#245=EDGE_CURVE('',#205,#206,#171,.T.);
#246=EDGE_CURVE('',#206,#196,#113,.T.);
#247=EDGE_CURVE('',#207,#194,#114,.T.);
#248=EDGE_CURVE('',#207,#205,#115,.T.);
#249=EDGE_CURVE('',#193,#208,#116,.T.);
#250=EDGE_CURVE('',#208,#207,#172,.T.);
#251=EDGE_CURVE('',#204,#208,#117,.T.);
#252=EDGE_CURVE('',#197,#209,#118,.T.);
#253=EDGE_CURVE('',#209,#209,#173,.T.);
#254=EDGE_CURVE('',#210,#210,#174,.T.);
#255=EDGE_CURVE('',#198,#211,#119,.T.);
#256=EDGE_CURVE('',#211,#211,#175,.T.);
#257=EDGE_CURVE('',#212,#212,#176,.T.);
#258=EDGE_CURVE('',#202,#213,#120,.T.);
#259=EDGE_CURVE('',#213,#213,#177,.T.);
#260=EDGE_CURVE('',#213,#214,#121,.T.);
#261=EDGE_CURVE('',#214,#214,#178,.T.);
#262=EDGE_CURVE('',#199,#215,#122,.T.);
#263=EDGE_CURVE('',#215,#215,#179,.T.);
#264=EDGE_CURVE('',#215,#216,#123,.T.);
#265=EDGE_CURVE('',#216,#216,#180,.T.);
#266=EDGE_CURVE('',#201,#217,#124,.T.);
#267=EDGE_CURVE('',#217,#217,#181,.T.);
#268=EDGE_CURVE('',#217,#218,#125,.T.);
#269=EDGE_CURVE('',#218,#218,#182,.T.);
#270=EDGE_CURVE('',#200,#219,#126,.T.);
#271=EDGE_CURVE('',#219,#219,#183,.T.);
#272=EDGE_CURVE('',#219,#220,#127,.T.);
#273=EDGE_CURVE('',#220,#220,#184,.T.);
#274=EDGE_CURVE('',#210,#221,#128,.T.);
#275=EDGE_CURVE('',#221,#221,#185,.T.);
#276=EDGE_CURVE('',#212,#222,#129,.T.);
#277=EDGE_CURVE('',#222,#222,#186,.T.);
#278=EDGE_CURVE('',#206,#187,#130,.T.);
#279=ORIENTED_EDGE('',*,*,#223,.T.);
#280=ORIENTED_EDGE('',*,*,#224,.T.);
#281=ORIENTED_EDGE('',*,*,#225,.T.);
#282=ORIENTED_EDGE('',*,*,#226,.T.);
#283=ORIENTED_EDGE('',*,*,#225,.F.);
#284=ORIENTED_EDGE('',*,*,#227,.F.);
#285=ORIENTED_EDGE('',*,*,#228,.F.);
#286=ORIENTED_EDGE('',*,*,#229,.F.);
#287=ORIENTED_EDGE('',*,*,#230,.F.);
#288=ORIENTED_EDGE('',*,*,#231,.T.);
#289=ORIENTED_EDGE('',*,*,#232,.F.);
#290=ORIENTED_EDGE('',*,*,#233,.T.);
#291=ORIENTED_EDGE('',*,*,#234,.T.);
#292=ORIENTED_EDGE('',*,*,#235,.T.);
#293=ORIENTED_EDGE('',*,*,#236,.F.);
#294=ORIENTED_EDGE('',*,*,#237,.F.);
#295=ORIENTED_EDGE('',*,*,#238,.F.);
#296=ORIENTED_EDGE('',*,*,#239,.F.);
#297=ORIENTED_EDGE('',*,*,#224,.F.);
#298=ORIENTED_EDGE('',*,*,#240,.T.);
#299=ORIENTED_EDGE('',*,*,#241,.F.);
#300=ORIENTED_EDGE('',*,*,#227,.T.);
#301=ORIENTED_EDGE('',*,*,#242,.T.);
#302=ORIENTED_EDGE('',*,*,#243,.T.);
#303=ORIENTED_EDGE('',*,*,#228,.T.);
#304=ORIENTED_EDGE('',*,*,#241,.T.);
#305=ORIENTED_EDGE('',*,*,#232,.T.);
#306=ORIENTED_EDGE('',*,*,#244,.T.);
#307=ORIENTED_EDGE('',*,*,#245,.T.);
#308=ORIENTED_EDGE('',*,*,#246,.T.);
#309=ORIENTED_EDGE('',*,*,#244,.F.);
#310=ORIENTED_EDGE('',*,*,#231,.F.);
#311=ORIENTED_EDGE('',*,*,#247,.F.);
#312=ORIENTED_EDGE('',*,*,#248,.T.);
#313=ORIENTED_EDGE('',*,*,#230,.T.);
#314=ORIENTED_EDGE('',*,*,#249,.T.);
#315=ORIENTED_EDGE('',*,*,#250,.T.);
#316=ORIENTED_EDGE('',*,*,#247,.T.);
#317=ORIENTED_EDGE('',*,*,#243,.F.);
#318=ORIENTED_EDGE('',*,*,#251,.T.);
#319=ORIENTED_EDGE('',*,*,#249,.F.);
#320=ORIENTED_EDGE('',*,*,#229,.T.);
#321=ORIENTED_EDGE('',*,*,#234,.F.);
#322=ORIENTED_EDGE('',*,*,#252,.T.);
#323=ORIENTED_EDGE('',*,*,#253,.T.);
#324=ORIENTED_EDGE('',*,*,#252,.F.);
#325=ORIENTED_EDGE('',*,*,#253,.F.);
#326=ORIENTED_EDGE('',*,*,#254,.F.);
#327=ORIENTED_EDGE('',*,*,#235,.F.);
#328=ORIENTED_EDGE('',*,*,#255,.T.);
#329=ORIENTED_EDGE('',*,*,#256,.T.);
#330=ORIENTED_EDGE('',*,*,#255,.F.);
#331=ORIENTED_EDGE('',*,*,#256,.F.);
#332=ORIENTED_EDGE('',*,*,#257,.F.);
#333=ORIENTED_EDGE('',*,*,#239,.T.);
#334=ORIENTED_EDGE('',*,*,#258,.T.);
#335=ORIENTED_EDGE('',*,*,#259,.T.);
#336=ORIENTED_EDGE('',*,*,#258,.F.);
#337=ORIENTED_EDGE('',*,*,#259,.F.);
#338=ORIENTED_EDGE('',*,*,#260,.T.);
#339=ORIENTED_EDGE('',*,*,#261,.F.);
#340=ORIENTED_EDGE('',*,*,#260,.F.);
#341=ORIENTED_EDGE('',*,*,#236,.T.);
#342=ORIENTED_EDGE('',*,*,#262,.T.);
#343=ORIENTED_EDGE('',*,*,#263,.T.);
#344=ORIENTED_EDGE('',*,*,#262,.F.);
#345=ORIENTED_EDGE('',*,*,#263,.F.);
#346=ORIENTED_EDGE('',*,*,#264,.T.);
#347=ORIENTED_EDGE('',*,*,#265,.F.);
#348=ORIENTED_EDGE('',*,*,#264,.F.);
#349=ORIENTED_EDGE('',*,*,#238,.T.);
#350=ORIENTED_EDGE('',*,*,#266,.T.);
#351=ORIENTED_EDGE('',*,*,#267,.T.);
#352=ORIENTED_EDGE('',*,*,#266,.F.);
#353=ORIENTED_EDGE('',*,*,#267,.F.);
#354=ORIENTED_EDGE('',*,*,#268,.T.);
#355=ORIENTED_EDGE('',*,*,#269,.F.);
#356=ORIENTED_EDGE('',*,*,#268,.F.);
#357=ORIENTED_EDGE('',*,*,#237,.T.);
#358=ORIENTED_EDGE('',*,*,#270,.T.);
#359=ORIENTED_EDGE('',*,*,#271,.T.);
#360=ORIENTED_EDGE('',*,*,#270,.F.);
#361=ORIENTED_EDGE('',*,*,#271,.F.);
#362=ORIENTED_EDGE('',*,*,#272,.T.);
#363=ORIENTED_EDGE('',*,*,#273,.F.);
#364=ORIENTED_EDGE('',*,*,#272,.F.);
#365=ORIENTED_EDGE('',*,*,#254,.T.);
#366=ORIENTED_EDGE('',*,*,#274,.T.);
#367=ORIENTED_EDGE('',*,*,#275,.F.);
#368=ORIENTED_EDGE('',*,*,#274,.F.);
#369=ORIENTED_EDGE('',*,*,#257,.T.);
#370=ORIENTED_EDGE('',*,*,#276,.T.);
#371=ORIENTED_EDGE('',*,*,#277,.F.);
#372=ORIENTED_EDGE('',*,*,#276,.F.);
#373=ORIENTED_EDGE('',*,*,#226,.F.);
#374=ORIENTED_EDGE('',*,*,#233,.F.);
#375=ORIENTED_EDGE('',*,*,#246,.F.);
#376=ORIENTED_EDGE('',*,*,#278,.T.);
#377=ORIENTED_EDGE('',*,*,#223,.F.);
#378=ORIENTED_EDGE('',*,*,#278,.F.);
#379=ORIENTED_EDGE('',*,*,#245,.F.);
#380=ORIENTED_EDGE('',*,*,#248,.F.);
#381=ORIENTED_EDGE('',*,*,#250,.F.);
#382=ORIENTED_EDGE('',*,*,#251,.F.);
#383=ORIENTED_EDGE('',*,*,#242,.F.);
#384=ORIENTED_EDGE('',*,*,#240,.F.);
#385=ORIENTED_EDGE('',*,*,#261,.T.);
#386=ORIENTED_EDGE('',*,*,#273,.T.);
#387=ORIENTED_EDGE('',*,*,#275,.T.);
#388=ORIENTED_EDGE('',*,*,#265,.T.);
#389=ORIENTED_EDGE('',*,*,#269,.T.);
#390=ORIENTED_EDGE('',*,*,#277,.T.);
#391=CYLINDRICAL_SURFACE('',#441,3.);
#392=CYLINDRICAL_SURFACE('',#455,3.);
#393=CYLINDRICAL_SURFACE('',#457,3.);
#394=CYLINDRICAL_SURFACE('',#460,3.);
#395=CYLINDRICAL_SURFACE('',#463,4.25);
#396=CYLINDRICAL_SURFACE('',#467,4.25);
#397=CYLINDRICAL_SURFACE('',#473,2.3);
#398=CYLINDRICAL_SURFACE('',#477,2.3);
#399=CYLINDRICAL_SURFACE('',#481,2.3);
#400=CYLINDRICAL_SURFACE('',#485,2.3);
#401=CYLINDRICAL_SURFACE('',#487,2.25);
#402=CYLINDRICAL_SURFACE('',#489,2.25);
#403=ADVANCED_FACE('',(#41),#391,.T.);
#404=ADVANCED_FACE('',(#42,#19,#20,#21,#22,#23,#24),#33,.T.);
#405=ADVANCED_FACE('',(#43),#34,.T.);
#406=ADVANCED_FACE('',(#44),#392,.T.);
#407=ADVANCED_FACE('',(#45),#393,.T.);
#408=ADVANCED_FACE('',(#46),#35,.T.);
#409=ADVANCED_FACE('',(#47),#394,.T.);
#410=ADVANCED_FACE('',(#48),#36,.T.);
#411=ADVANCED_FACE('',(#49),#395,.F.);
#412=ADVANCED_FACE('',(#50,#25),#37,.T.);
#413=ADVANCED_FACE('',(#51),#396,.F.);
#414=ADVANCED_FACE('',(#52,#26),#38,.T.);
#415=ADVANCED_FACE('',(#53),#15,.F.);
#416=ADVANCED_FACE('',(#54),#397,.F.);
#417=ADVANCED_FACE('',(#55),#16,.F.);
#418=ADVANCED_FACE('',(#56),#398,.F.);
#419=ADVANCED_FACE('',(#57),#17,.F.);
#420=ADVANCED_FACE('',(#58),#399,.F.);
#421=ADVANCED_FACE('',(#59),#18,.F.);
#422=ADVANCED_FACE('',(#60),#400,.F.);
#423=ADVANCED_FACE('',(#61),#401,.F.);
#424=ADVANCED_FACE('',(#62),#402,.F.);
#425=ADVANCED_FACE('',(#63),#39,.T.);
#426=ADVANCED_FACE('',(#64,#27,#28,#29,#30,#31,#32),#40,.F.);
#427=CLOSED_SHELL('',(#403,#404,#405,#406,#407,#408,#409,#410,#411,#412,
#413,#414,#415,#416,#417,#418,#419,#420,#421,#422,#423,#424,#425,#426));
#428=DERIVED_UNIT_ELEMENT(#430,1.);
#429=DERIVED_UNIT_ELEMENT(#749,-3.);
#430=(
MASS_UNIT()
NAMED_UNIT(*)
SI_UNIT(.KILO.,.GRAM.)
);
#431=DERIVED_UNIT((#428,#429));
#432=MEASURE_REPRESENTATION_ITEM('density measure',
POSITIVE_RATIO_MEASURE(7850.),#431);
#433=PROPERTY_DEFINITION_REPRESENTATION(#438,#435);
#434=PROPERTY_DEFINITION_REPRESENTATION(#439,#436);
#435=REPRESENTATION('material name',(#437),#746);
#436=REPRESENTATION('density',(#432),#746);
#437=DESCRIPTIVE_REPRESENTATION_ITEM('Steel','Steel');
#438=PROPERTY_DEFINITION('material property','material name',#756);
#439=PROPERTY_DEFINITION('material property','density of part',#756);
#440=AXIS2_PLACEMENT_3D('',#627,#493,#494);
#441=AXIS2_PLACEMENT_3D('',#628,#495,#496);
#442=AXIS2_PLACEMENT_3D('',#631,#497,#498);
#443=AXIS2_PLACEMENT_3D('',#635,#500,#501);
#444=AXIS2_PLACEMENT_3D('',#637,#503,#504);
#445=AXIS2_PLACEMENT_3D('',#641,#506,#507);
#446=AXIS2_PLACEMENT_3D('',#645,#509,#510);
#447=AXIS2_PLACEMENT_3D('',#649,#512,#513);
#448=AXIS2_PLACEMENT_3D('',#652,#515,#516);
#449=AXIS2_PLACEMENT_3D('',#654,#517,#518);
#450=AXIS2_PLACEMENT_3D('',#656,#519,#520);
#451=AXIS2_PLACEMENT_3D('',#658,#521,#522);
#452=AXIS2_PLACEMENT_3D('',#660,#523,#524);
#453=AXIS2_PLACEMENT_3D('',#662,#525,#526);
#454=AXIS2_PLACEMENT_3D('',#663,#527,#528);
#455=AXIS2_PLACEMENT_3D('',#667,#531,#532);
#456=AXIS2_PLACEMENT_3D('',#669,#533,#534);
#457=AXIS2_PLACEMENT_3D('',#671,#536,#537);
#458=AXIS2_PLACEMENT_3D('',#675,#539,#540);
#459=AXIS2_PLACEMENT_3D('',#677,#542,#543);
#460=AXIS2_PLACEMENT_3D('',#681,#546,#547);
#461=AXIS2_PLACEMENT_3D('',#684,#549,#550);
#462=AXIS2_PLACEMENT_3D('',#685,#551,#552);
#463=AXIS2_PLACEMENT_3D('',#687,#554,#555);
#464=AXIS2_PLACEMENT_3D('',#690,#557,#558);
#465=AXIS2_PLACEMENT_3D('',#691,#559,#560);
#466=AXIS2_PLACEMENT_3D('',#693,#561,#562);
#467=AXIS2_PLACEMENT_3D('',#694,#563,#564);
#468=AXIS2_PLACEMENT_3D('',#697,#566,#567);
#469=AXIS2_PLACEMENT_3D('',#698,#568,#569);
#470=AXIS2_PLACEMENT_3D('',#700,#570,#571);
#471=AXIS2_PLACEMENT_3D('',#701,#572,#573);
#472=AXIS2_PLACEMENT_3D('',#704,#575,#576);
#473=AXIS2_PLACEMENT_3D('',#705,#577,#578);
#474=AXIS2_PLACEMENT_3D('',#708,#580,#581);
#475=AXIS2_PLACEMENT_3D('',#709,#582,#583);
#476=AXIS2_PLACEMENT_3D('',#712,#585,#586);
#477=AXIS2_PLACEMENT_3D('',#713,#587,#588);
#478=AXIS2_PLACEMENT_3D('',#716,#590,#591);
#479=AXIS2_PLACEMENT_3D('',#717,#592,#593);
#480=AXIS2_PLACEMENT_3D('',#720,#595,#596);
#481=AXIS2_PLACEMENT_3D('',#721,#597,#598);
#482=AXIS2_PLACEMENT_3D('',#724,#600,#601);
#483=AXIS2_PLACEMENT_3D('',#725,#602,#603);
#484=AXIS2_PLACEMENT_3D('',#728,#605,#606);
#485=AXIS2_PLACEMENT_3D('',#729,#607,#608);
#486=AXIS2_PLACEMENT_3D('',#732,#610,#611);
#487=AXIS2_PLACEMENT_3D('',#733,#612,#613);
#488=AXIS2_PLACEMENT_3D('',#736,#615,#616);
#489=AXIS2_PLACEMENT_3D('',#737,#617,#618);
#490=AXIS2_PLACEMENT_3D('',#740,#620,#621);
#491=AXIS2_PLACEMENT_3D('',#741,#622,#623);
#492=AXIS2_PLACEMENT_3D('',#743,#625,#626);
#493=DIRECTION('axis',(0.,0.,1.));
#494=DIRECTION('refdir',(1.,0.,0.));
#495=DIRECTION('center_axis',(0.,0.,-1.));
#496=DIRECTION('ref_axis',(-0.707106781186548,-0.707106781186548,0.));
#497=DIRECTION('center_axis',(0.,0.,1.));
#498=DIRECTION('ref_axis',(-0.707106781186548,-0.707106781186548,0.));
#499=DIRECTION('',(0.,0.,1.));
#500=DIRECTION('center_axis',(0.,0.,-1.));
#501=DIRECTION('ref_axis',(-0.707106781186548,-0.707106781186548,0.));
#502=DIRECTION('',(0.,0.,-1.));
#503=DIRECTION('center_axis',(0.,0.,1.));
#504=DIRECTION('ref_axis',(1.,0.,0.));
#505=DIRECTION('',(-1.,0.,0.));
#506=DIRECTION('center_axis',(0.,0.,-1.));
#507=DIRECTION('ref_axis',(0.707106781186548,-0.707106781186548,0.));
#508=DIRECTION('',(-2.73285667600039E-16,-1.,0.));
#509=DIRECTION('center_axis',(0.,0.,-1.));
#510=DIRECTION('ref_axis',(0.707106781186548,0.707106781186548,0.));
#511=DIRECTION('',(-1.,0.,0.));
#512=DIRECTION('center_axis',(0.,0.,-1.));
#513=DIRECTION('ref_axis',(-0.707106781186548,0.707106781186548,0.));
#514=DIRECTION('',(0.,-1.,0.));
#515=DIRECTION('center_axis',(0.,0.,-1.));
#516=DIRECTION('ref_axis',(-1.,0.,0.));
#517=DIRECTION('center_axis',(0.,0.,-1.));
#518=DIRECTION('ref_axis',(-1.,0.,0.));
#519=DIRECTION('center_axis',(0.,0.,1.));
#520=DIRECTION('ref_axis',(-1.,0.,0.));
#521=DIRECTION('center_axis',(0.,0.,1.));
#522=DIRECTION('ref_axis',(-1.,0.,0.));
#523=DIRECTION('center_axis',(0.,0.,1.));
#524=DIRECTION('ref_axis',(-1.,0.,0.));
#525=DIRECTION('center_axis',(0.,0.,1.));
#526=DIRECTION('ref_axis',(-1.,0.,0.));
#527=DIRECTION('center_axis',(0.,-1.,0.));
#528=DIRECTION('ref_axis',(-1.,0.,0.));
#529=DIRECTION('',(1.,0.,0.));
#530=DIRECTION('',(0.,0.,-1.));
#531=DIRECTION('center_axis',(0.,0.,-1.));
#532=DIRECTION('ref_axis',(0.707106781186548,-0.707106781186548,0.));
#533=DIRECTION('center_axis',(0.,0.,1.));
#534=DIRECTION('ref_axis',(0.707106781186548,-0.707106781186548,0.));
#535=DIRECTION('',(0.,0.,1.));
#536=DIRECTION('center_axis',(0.,0.,1.));
#537=DIRECTION('ref_axis',(-0.707106781186548,0.707106781186548,0.));
#538=DIRECTION('',(0.,0.,-1.));
#539=DIRECTION('center_axis',(0.,0.,1.));
#540=DIRECTION('ref_axis',(-0.707106781186548,0.707106781186548,0.));
#541=DIRECTION('',(0.,0.,1.));
#542=DIRECTION('center_axis',(0.,1.,0.));
#543=DIRECTION('ref_axis',(-1.,0.,0.));
#544=DIRECTION('',(0.,0.,1.));
#545=DIRECTION('',(-1.,0.,0.));
#546=DIRECTION('center_axis',(0.,0.,1.));
#547=DIRECTION('ref_axis',(0.707106781186548,0.707106781186548,0.));
#548=DIRECTION('',(0.,0.,-1.));
#549=DIRECTION('center_axis',(0.,0.,1.));
#550=DIRECTION('ref_axis',(0.707106781186548,0.707106781186548,0.));
#551=DIRECTION('center_axis',(1.,0.,0.));
#552=DIRECTION('ref_axis',(0.,1.,0.));
#553=DIRECTION('',(0.,1.,0.));
#554=DIRECTION('center_axis',(0.,0.,-1.));
#555=DIRECTION('ref_axis',(-1.,0.,0.));
#556=DIRECTION('',(0.,0.,-1.));
#557=DIRECTION('center_axis',(0.,0.,-1.));
#558=DIRECTION('ref_axis',(-1.,0.,0.));
#559=DIRECTION('center_axis',(0.,0.,1.));
#560=DIRECTION('ref_axis',(-1.,0.,0.));
#561=DIRECTION('center_axis',(0.,0.,1.));
#562=DIRECTION('ref_axis',(-1.,0.,0.));
#563=DIRECTION('center_axis',(0.,0.,-1.));
#564=DIRECTION('ref_axis',(-1.,0.,0.));
#565=DIRECTION('',(0.,0.,-1.));
#566=DIRECTION('center_axis',(0.,0.,-1.));
#567=DIRECTION('ref_axis',(-1.,0.,0.));
#568=DIRECTION('center_axis',(0.,0.,1.));
#569=DIRECTION('ref_axis',(-1.,0.,0.));
#570=DIRECTION('center_axis',(0.,0.,1.));
#571=DIRECTION('ref_axis',(-1.,0.,0.));
#572=DIRECTION('center_axis',(0.,0.,1.));
#573=DIRECTION('ref_axis',(-1.,0.,0.));
#574=DIRECTION('',(-0.707106781186548,-8.65956056235494E-17,-0.707106781186547));
#575=DIRECTION('center_axis',(0.,0.,-1.));
#576=DIRECTION('ref_axis',(-1.,0.,0.));
#577=DIRECTION('center_axis',(0.,0.,-1.));
#578=DIRECTION('ref_axis',(-1.,0.,0.));
#579=DIRECTION('',(0.,0.,-1.));
#580=DIRECTION('center_axis',(0.,0.,1.));
#581=DIRECTION('ref_axis',(-1.,0.,0.));
#582=DIRECTION('center_axis',(0.,0.,1.));
#583=DIRECTION('ref_axis',(-1.,0.,0.));
#584=DIRECTION('',(-0.707106781186548,-8.65956056235494E-17,-0.707106781186547));
#585=DIRECTION('center_axis',(0.,0.,-1.));
#586=DIRECTION('ref_axis',(-1.,0.,0.));
#587=DIRECTION('center_axis',(0.,0.,-1.));
#588=DIRECTION('ref_axis',(-1.,0.,0.));
#589=DIRECTION('',(0.,0.,-1.));
#590=DIRECTION('center_axis',(0.,0.,1.));
#591=DIRECTION('ref_axis',(-1.,0.,0.));
#592=DIRECTION('center_axis',(0.,0.,1.));
#593=DIRECTION('ref_axis',(-1.,0.,0.));
#594=DIRECTION('',(-0.707106781186546,-8.65956056235492E-17,-0.707106781186549));
#595=DIRECTION('center_axis',(0.,0.,-1.));
#596=DIRECTION('ref_axis',(-1.,0.,0.));
#597=DIRECTION('center_axis',(0.,0.,-1.));
#598=DIRECTION('ref_axis',(-1.,0.,0.));
#599=DIRECTION('',(0.,0.,-1.));
#600=DIRECTION('center_axis',(0.,0.,1.));
#601=DIRECTION('ref_axis',(-1.,0.,0.));
#602=DIRECTION('center_axis',(0.,0.,1.));
#603=DIRECTION('ref_axis',(-1.,0.,0.));
#604=DIRECTION('',(-0.707106781186546,-8.65956056235492E-17,-0.707106781186549));
#605=DIRECTION('center_axis',(0.,0.,-1.));
#606=DIRECTION('ref_axis',(-1.,0.,0.));
#607=DIRECTION('center_axis',(0.,0.,-1.));
#608=DIRECTION('ref_axis',(-1.,0.,0.));
#609=DIRECTION('',(0.,0.,-1.));
#610=DIRECTION('center_axis',(0.,0.,1.));
#611=DIRECTION('ref_axis',(-1.,0.,0.));
#612=DIRECTION('center_axis',(0.,0.,-1.));
#613=DIRECTION('ref_axis',(-1.,0.,0.));
#614=DIRECTION('',(0.,0.,-1.));
#615=DIRECTION('center_axis',(0.,0.,1.));
#616=DIRECTION('ref_axis',(-1.,0.,0.));
#617=DIRECTION('center_axis',(0.,0.,-1.));
#618=DIRECTION('ref_axis',(-1.,0.,0.));
#619=DIRECTION('',(0.,0.,-1.));
#620=DIRECTION('center_axis',(0.,0.,1.));
#621=DIRECTION('ref_axis',(-1.,0.,0.));
#622=DIRECTION('center_axis',(-1.,0.,0.));
#623=DIRECTION('ref_axis',(0.,-1.,0.));
#624=DIRECTION('',(0.,-1.,0.));
#625=DIRECTION('center_axis',(0.,0.,1.));
#626=DIRECTION('ref_axis',(1.,0.,0.));
#627=CARTESIAN_POINT('',(0.,0.,0.));
#628=CARTESIAN_POINT('Origin',(-46.,-99.5,3.));
#629=CARTESIAN_POINT('',(-49.,-99.5,0.));
#630=CARTESIAN_POINT('',(-46.,-102.5,0.));
#631=CARTESIAN_POINT('Origin',(-46.,-99.5,0.));
#632=CARTESIAN_POINT('',(-46.,-102.5,6.));
#633=CARTESIAN_POINT('',(-46.,-102.5,3.));
#634=CARTESIAN_POINT('',(-49.,-99.5,6.));
#635=CARTESIAN_POINT('Origin',(-46.,-99.5,6.));
#636=CARTESIAN_POINT('',(-49.,-99.5,3.));
#637=CARTESIAN_POINT('Origin',(0.,0.,6.));
#638=CARTESIAN_POINT('',(46.,-102.5,6.));
#639=CARTESIAN_POINT('',(49.,-102.5,6.));
#640=CARTESIAN_POINT('',(49.,-99.5,6.));
#641=CARTESIAN_POINT('Origin',(46.,-99.5,6.));
#642=CARTESIAN_POINT('',(49.,34.5,6.));
#643=CARTESIAN_POINT('',(49.,-37.5,6.));
#644=CARTESIAN_POINT('',(46.,37.5,6.));
#645=CARTESIAN_POINT('Origin',(46.,34.5,6.));
#646=CARTESIAN_POINT('',(-46.,37.5,6.));
#647=CARTESIAN_POINT('',(49.,37.5,6.));
#648=CARTESIAN_POINT('',(-49.,34.5,6.));
#649=CARTESIAN_POINT('Origin',(-46.,34.5,6.));
#650=CARTESIAN_POINT('',(-49.,37.5,6.));
#651=CARTESIAN_POINT('',(-35.25,5.20474889637625E-16,6.));
#652=CARTESIAN_POINT('Origin',(-39.5,0.,6.));
#653=CARTESIAN_POINT('',(43.75,5.20474889637625E-16,6.));
#654=CARTESIAN_POINT('Origin',(39.5,0.,6.));
#655=CARTESIAN_POINT('',(42.8,27.5,6.));
#656=CARTESIAN_POINT('Origin',(39.5,27.5,6.));
#657=CARTESIAN_POINT('',(-36.2,-27.5,6.));
#658=CARTESIAN_POINT('Origin',(-39.5,-27.5,6.));
#659=CARTESIAN_POINT('',(-36.2,27.5,6.));
#660=CARTESIAN_POINT('Origin',(-39.5,27.5,6.));
#661=CARTESIAN_POINT('',(42.8,-27.5,6.));
#662=CARTESIAN_POINT('Origin',(39.5,-27.5,6.));
#663=CARTESIAN_POINT('Origin',(49.,-102.5,6.));
#664=CARTESIAN_POINT('',(46.,-102.5,0.));
#665=CARTESIAN_POINT('',(24.5,-102.5,0.));
#666=CARTESIAN_POINT('',(46.,-102.5,3.));
#667=CARTESIAN_POINT('Origin',(46.,-99.5,3.));
#668=CARTESIAN_POINT('',(49.,-99.5,0.));
#669=CARTESIAN_POINT('Origin',(46.,-99.5,0.));
#670=CARTESIAN_POINT('',(49.,-99.5,3.));
#671=CARTESIAN_POINT('Origin',(-46.,34.5,0.));
#672=CARTESIAN_POINT('',(-46.,37.5,0.));
#673=CARTESIAN_POINT('',(-46.,37.5,0.));
#674=CARTESIAN_POINT('',(-49.,34.5,0.));
#675=CARTESIAN_POINT('Origin',(-46.,34.5,0.));
#676=CARTESIAN_POINT('',(-49.,34.5,0.));
#677=CARTESIAN_POINT('Origin',(49.,37.5,0.));
#678=CARTESIAN_POINT('',(46.,37.5,0.));
#679=CARTESIAN_POINT('',(46.,37.5,0.));
#680=CARTESIAN_POINT('',(49.,37.5,0.));
#681=CARTESIAN_POINT('Origin',(46.,34.5,0.));
#682=CARTESIAN_POINT('',(49.,34.5,0.));
#683=CARTESIAN_POINT('',(49.,34.5,0.));
#684=CARTESIAN_POINT('Origin',(46.,34.5,0.));
#685=CARTESIAN_POINT('Origin',(49.,-37.5,0.));
#686=CARTESIAN_POINT('',(49.,-37.5,0.));
#687=CARTESIAN_POINT('Origin',(-39.5,0.,6.));
#688=CARTESIAN_POINT('',(-35.25,5.20474889637625E-16,3.));
#689=CARTESIAN_POINT('',(-35.25,-5.20474889637625E-16,6.));
#690=CARTESIAN_POINT('Origin',(-39.5,0.,3.));
#691=CARTESIAN_POINT('Origin',(-39.5,0.,3.));
#692=CARTESIAN_POINT('',(-37.25,2.75545529808154E-16,3.));
#693=CARTESIAN_POINT('Origin',(-39.5,0.,3.));
#694=CARTESIAN_POINT('Origin',(39.5,0.,6.));
#695=CARTESIAN_POINT('',(43.75,5.20474889637625E-16,3.));
#696=CARTESIAN_POINT('',(43.75,-5.20474889637625E-16,6.));
#697=CARTESIAN_POINT('Origin',(39.5,0.,3.));
#698=CARTESIAN_POINT('Origin',(39.5,0.,3.));
#699=CARTESIAN_POINT('',(41.75,2.75545529808155E-16,3.));
#700=CARTESIAN_POINT('Origin',(39.5,0.,3.));
#701=CARTESIAN_POINT('Origin',(39.5,-27.5,5.5));
#702=CARTESIAN_POINT('',(41.8,-27.5,5.));
#703=CARTESIAN_POINT('',(42.3,-27.5,5.5));
#704=CARTESIAN_POINT('Origin',(39.5,-27.5,5.));
#705=CARTESIAN_POINT('Origin',(39.5,-27.5,6.));
#706=CARTESIAN_POINT('',(41.8,-27.5,0.));
#707=CARTESIAN_POINT('',(41.8,-27.5,6.));
#708=CARTESIAN_POINT('Origin',(39.5,-27.5,0.));
#709=CARTESIAN_POINT('Origin',(39.5,27.5,5.5));
#710=CARTESIAN_POINT('',(41.8,27.5,5.));
#711=CARTESIAN_POINT('',(42.3,27.5,5.5));
#712=CARTESIAN_POINT('Origin',(39.5,27.5,5.));
#713=CARTESIAN_POINT('Origin',(39.5,27.5,6.));
#714=CARTESIAN_POINT('',(41.8,27.5,0.));
#715=CARTESIAN_POINT('',(41.8,27.5,6.));
#716=CARTESIAN_POINT('Origin',(39.5,27.5,0.));
#717=CARTESIAN_POINT('Origin',(-39.5,27.5,5.5));
#718=CARTESIAN_POINT('',(-37.2,27.5,5.));
#719=CARTESIAN_POINT('',(-36.7,27.5,5.5));
#720=CARTESIAN_POINT('Origin',(-39.5,27.5,5.));
#721=CARTESIAN_POINT('Origin',(-39.5,27.5,6.));
#722=CARTESIAN_POINT('',(-37.2,27.5,0.));
#723=CARTESIAN_POINT('',(-37.2,27.5,6.));
#724=CARTESIAN_POINT('Origin',(-39.5,27.5,0.));
#725=CARTESIAN_POINT('Origin',(-39.5,-27.5,5.5));
#726=CARTESIAN_POINT('',(-37.2,-27.5,5.));
#727=CARTESIAN_POINT('',(-36.7,-27.5,5.5));
#728=CARTESIAN_POINT('Origin',(-39.5,-27.5,5.));
#729=CARTESIAN_POINT('Origin',(-39.5,-27.5,6.));
#730=CARTESIAN_POINT('',(-37.2,-27.5,0.));
#731=CARTESIAN_POINT('',(-37.2,-27.5,6.));
#732=CARTESIAN_POINT('Origin',(-39.5,-27.5,0.));
#733=CARTESIAN_POINT('Origin',(-39.5,0.,6.));
#734=CARTESIAN_POINT('',(-37.25,2.75545529808154E-16,0.));
#735=CARTESIAN_POINT('',(-37.25,-2.75545529808154E-16,6.));
#736=CARTESIAN_POINT('Origin',(-39.5,0.,0.));
#737=CARTESIAN_POINT('Origin',(39.5,0.,6.));
#738=CARTESIAN_POINT('',(41.75,2.75545529808155E-16,0.));
#739=CARTESIAN_POINT('',(41.75,-2.75545529808155E-16,6.));
#740=CARTESIAN_POINT('Origin',(39.5,0.,0.));
#741=CARTESIAN_POINT('Origin',(-49.,37.5,0.));
#742=CARTESIAN_POINT('',(-49.,37.5,0.));
#743=CARTESIAN_POINT('Origin',(0.,0.,0.));
#744=UNCERTAINTY_MEASURE_WITH_UNIT(LENGTH_MEASURE(0.01),#748,
'DISTANCE_ACCURACY_VALUE',
'Maximum model space distance between geometric entities at asserted c
onnectivities');
#745=UNCERTAINTY_MEASURE_WITH_UNIT(LENGTH_MEASURE(0.01),#748,
'DISTANCE_ACCURACY_VALUE',
'Maximum model space distance between geometric entities at asserted c
onnectivities');
#746=(
GEOMETRIC_REPRESENTATION_CONTEXT(3)
GLOBAL_UNCERTAINTY_ASSIGNED_CONTEXT((#744))
GLOBAL_UNIT_ASSIGNED_CONTEXT((#748,#750,#751))
REPRESENTATION_CONTEXT('','3D')
);
#747=(
GEOMETRIC_REPRESENTATION_CONTEXT(3)
GLOBAL_UNCERTAINTY_ASSIGNED_CONTEXT((#745))
GLOBAL_UNIT_ASSIGNED_CONTEXT((#748,#750,#751))
REPRESENTATION_CONTEXT('','3D')
);
#748=(
LENGTH_UNIT()
NAMED_UNIT(*)
SI_UNIT(.MILLI.,.METRE.)
);
#749=(
LENGTH_UNIT()
NAMED_UNIT(*)
SI_UNIT($,.METRE.)
);
#750=(
NAMED_UNIT(*)
PLANE_ANGLE_UNIT()
SI_UNIT($,.RADIAN.)
);
#751=(
NAMED_UNIT(*)
SI_UNIT($,.STERADIAN.)
SOLID_ANGLE_UNIT()
);
#752=SHAPE_DEFINITION_REPRESENTATION(#753,#754);
#753=PRODUCT_DEFINITION_SHAPE('',$,#756);
#754=SHAPE_REPRESENTATION('',(#440),#746);
#755=PRODUCT_DEFINITION_CONTEXT('part definition',#760,'design');
#756=PRODUCT_DEFINITION('Seaflo 21 Series Mount',
'Seaflo 21 Series Mount v5',#757,#755);
#757=PRODUCT_DEFINITION_FORMATION('',$,#762);
#758=PRODUCT_RELATED_PRODUCT_CATEGORY('Seaflo 21 Series Mount v5',
'Seaflo 21 Series Mount v5',(#762));
#759=APPLICATION_PROTOCOL_DEFINITION('international standard',
'ap242_managed_model_based_3d_engineering',2011,#760);
#760=APPLICATION_CONTEXT('Managed model based 3d engineering');
#761=PRODUCT_CONTEXT('part definition',#760,'mechanical');
#762=PRODUCT('Seaflo 21 Series Mount','Seaflo 21 Series Mount v5',$,(#761));
#763=PRESENTATION_STYLE_ASSIGNMENT((#764));
#764=SURFACE_STYLE_USAGE(.BOTH.,#765);
#765=SURFACE_SIDE_STYLE('',(#766));
#766=SURFACE_STYLE_FILL_AREA(#767);
#767=FILL_AREA_STYLE('Steel - Satin',(#768));
#768=FILL_AREA_STYLE_COLOUR('Steel - Satin',#769);
#769=COLOUR_RGB('Steel - Satin',0.627450980392157,0.627450980392157,0.627450980392157);
ENDSEC;
END-ISO-10303-21;
