ISO-10303-21;
HEADER;
/* Generated by software containing ST-Developer
 * from STEP Tools, Inc. (www.steptools.com) 
 */

FILE_DESCRIPTION(
/* description */ ('',
'CAx-IF Rec.Pracs.---Representation and Presentation of Product Manufa
cturing Information (PMI)---4.0---2014-10-13'),
/* implementation_level */ '2;1');

FILE_NAME(
/* name */ 'Suction Adapter Vertical v2.step',
/* time_stamp */ '2025-03-15T11:06:13-05:00',
/* author */ (''),
/* organization */ (''),
/* preprocessor_version */ 'ST-DEVELOPER v20',
/* originating_system */ 'Autodesk Translation Framework v13.20.0.188',

/* authorisation */ '');

FILE_SCHEMA (('AP242_MANAGED_MODEL_BASED_3D_ENGINEERING_MIM_LF { 1 0 10303 442 1 1 4 }'));
ENDSEC;

DATA;
#10=MECHANICAL_DESIGN_GEOMETRIC_PRESENTATION_REPRESENTATION('',(#13),#729);
#11=SHAPE_REPRESENTATION_RELATIONSHIP('SRR','None',#736,#12);
#12=ADVANCED_BREP_SHAPE_REPRESENTATION('',(#14),#728);
#13=STYLED_ITEM('',(#745),#14);
#14=MANIFOLD_SOLID_BREP('Body1',#287);
#15=FACE_BOUND('',#67,.T.);
#16=CONICAL_SURFACE('',#306,25.,0.260602391747341);
#17=CIRCLE('',#304,10.5);
#18=CIRCLE('',#305,25.);
#19=CIRCLE('',#307,17.);
#20=CIRCLE('',#308,25.);
#21=CIRCLE('',#309,25.);
#22=CIRCLE('',#310,25.);
#23=CIRCLE('',#311,25.);
#24=CIRCLE('',#312,25.);
#25=CIRCLE('',#314,10.5);
#26=CIRCLE('',#316,10.5);
#27=CIRCLE('',#320,10.5);
#28=CIRCLE('',#324,10.5);
#29=CIRCLE('',#326,10.5);
#30=CIRCLE('',#327,10.5);
#31=PLANE('',#303);
#32=PLANE('',#313);
#33=PLANE('',#315);
#34=PLANE('',#319);
#35=PLANE('',#323);
#36=PLANE('',#328);
#37=PLANE('',#329);
#38=FACE_OUTER_BOUND('',#53,.T.);
#39=FACE_OUTER_BOUND('',#54,.T.);
#40=FACE_OUTER_BOUND('',#55,.T.);
#41=FACE_OUTER_BOUND('',#56,.T.);
#42=FACE_OUTER_BOUND('',#57,.T.);
#43=FACE_OUTER_BOUND('',#58,.T.);
#44=FACE_OUTER_BOUND('',#59,.T.);
#45=FACE_OUTER_BOUND('',#60,.T.);
#46=FACE_OUTER_BOUND('',#61,.T.);
#47=FACE_OUTER_BOUND('',#62,.T.);
#48=FACE_OUTER_BOUND('',#63,.T.);
#49=FACE_OUTER_BOUND('',#64,.T.);
#50=FACE_OUTER_BOUND('',#65,.T.);
#51=FACE_OUTER_BOUND('',#66,.T.);
#52=FACE_OUTER_BOUND('',#68,.T.);
#53=EDGE_LOOP('',(#181,#182,#183,#184));
#54=EDGE_LOOP('',(#185,#186,#187,#188));
#55=EDGE_LOOP('',(#189,#190,#191,#192));
#56=EDGE_LOOP('',(#193,#194,#195,#196,#197,#198,#199,#200,#201,#202,#203,
#204,#205,#206,#207,#208));
#57=EDGE_LOOP('',(#209,#210,#211,#212));
#58=EDGE_LOOP('',(#213,#214,#215,#216));
#59=EDGE_LOOP('',(#217,#218,#219,#220));
#60=EDGE_LOOP('',(#221,#222,#223,#224));
#61=EDGE_LOOP('',(#225,#226,#227,#228));
#62=EDGE_LOOP('',(#229,#230,#231,#232,#233));
#63=EDGE_LOOP('',(#234,#235,#236,#237,#238));
#64=EDGE_LOOP('',(#239,#240,#241,#242));
#65=EDGE_LOOP('',(#243,#244,#245,#246,#247,#248,#249,#250,#251,#252,#253,
#254,#255,#256,#257,#258));
#66=EDGE_LOOP('',(#259));
#67=EDGE_LOOP('',(#260));
#68=EDGE_LOOP('',(#261,#262,#263,#264));
#69=LINE('',#427,#83);
#70=LINE('',#452,#84);
#71=LINE('',#456,#85);
#72=LINE('',#482,#86);
#73=LINE('',#505,#87);
#74=LINE('',#511,#88);
#75=LINE('',#621,#89);
#76=LINE('',#624,#90);
#77=LINE('',#646,#91);
#78=LINE('',#667,#92);
#79=LINE('',#671,#93);
#80=LINE('',#715,#94);
#81=LINE('',#716,#95);
#82=LINE('',#722,#96);
#83=VECTOR('',#334,10.);
#84=VECTOR('',#335,10.);
#85=VECTOR('',#338,10.);
#86=VECTOR('',#339,10.);
#87=VECTOR('',#344,10.);
#88=VECTOR('',#351,25.);
#89=VECTOR('',#366,10.);
#90=VECTOR('',#369,10.);
#91=VECTOR('',#374,10.);
#92=VECTOR('',#377,10.);
#93=VECTOR('',#382,10.);
#94=VECTOR('',#387,10.);
#95=VECTOR('',#388,10.);
#96=VECTOR('',#397,10.5);
#97=B_SPLINE_CURVE_WITH_KNOTS('',3,(#408,#409,#410,#411,#412,#413,#414,
#415,#416,#417,#418,#419,#420,#421,#422,#423,#424,#425),.UNSPECIFIED.,.F.,
 .F.,(4,2,2,2,2,2,2,2,4),(-0.756511688198678,-0.661942318809621,-0.567372949420563,
-0.472814396759951,-0.378255844099339,-0.283697291438727,-0.189138738778115,
-0.0945693693890577,0.),.UNSPECIFIED.);
#98=B_SPLINE_CURVE_WITH_KNOTS('',3,(#429,#430,#431,#432,#433,#434,#435,
#436,#437,#438,#439,#440,#441,#442,#443,#444,#445,#446,#447,#448,#449,#450,
#451),.UNSPECIFIED.,.F.,.F.,(4,2,2,2,2,2,2,2,2,3,4),(-0.756000747201592,
-0.749131671666288,-0.654151747132538,-0.559171822598788,-0.466868829215966,
-0.374565835833144,-0.282262842450322,-0.1899598490675,-0.0949799245337499,
0.,0.00686907556182585),.UNSPECIFIED.);
#99=B_SPLINE_CURVE_WITH_KNOTS('',3,(#458,#459,#460,#461,#462,#463,#464,
#465,#466,#467,#468,#469,#470,#471,#472,#473,#474,#475,#476,#477,#478,#479,
#480),.UNSPECIFIED.,.F.,.F.,(4,2,2,2,2,2,2,2,2,3,4),(-0.756000747201591,
-0.749131671666287,-0.654151747132537,-0.559171822598788,-0.466868829215966,
-0.374565835833144,-0.282262842450322,-0.1899598490675,-0.0949799245337499,
0.,0.00686907556182578),.UNSPECIFIED.);
#100=B_SPLINE_CURVE_WITH_KNOTS('',3,(#483,#484,#485,#486,#487,#488,#489,
#490,#491,#492,#493,#494,#495,#496,#497,#498,#499,#500),.UNSPECIFIED.,.F.,
 .F.,(4,2,2,2,2,2,2,2,4),(-0.756511688198679,-0.661942318809621,-0.567372949420563,
-0.472814396759951,-0.378255844099339,-0.283697291438727,-0.189138738778115,
-0.0945693693890577,0.),.UNSPECIFIED.);
#101=B_SPLINE_CURVE_WITH_KNOTS('',3,(#513,#514,#515,#516,#517,#518,#519,
#520,#521,#522,#523,#524,#525),.UNSPECIFIED.,.F.,.F.,(4,2,2,2,3,4),(-0.374565835833144,
-0.282262842450322,-0.1899598490675,-0.0949799245337499,0.,0.00686907556182589),
 .UNSPECIFIED.);
#102=B_SPLINE_CURVE_WITH_KNOTS('',3,(#528,#529,#530,#531,#532,#533,#534,
#535,#536,#537,#538,#539,#540,#541,#542,#543,#544,#545,#546,#547,#548,#549,
#550),.UNSPECIFIED.,.F.,.F.,(4,2,2,2,2,2,2,2,2,3,4),(-0.756000747201592,
-0.749131671666288,-0.654151747132538,-0.559171822598788,-0.466868829215966,
-0.374565835833144,-0.282262842450322,-0.1899598490675,-0.0949799245337499,
0.,0.00686907556182581),.UNSPECIFIED.);
#103=B_SPLINE_CURVE_WITH_KNOTS('',3,(#554,#555,#556,#557,#558,#559,#560,
#561,#562,#563,#564,#565,#566,#567,#568,#569,#570,#571,#572,#573,#574,#575,
#576),.UNSPECIFIED.,.F.,.F.,(4,2,2,2,2,2,2,2,2,3,4),(-0.756000747201592,
-0.749131671666287,-0.654151747132538,-0.559171822598788,-0.466868829215966,
-0.374565835833144,-0.282262842450322,-0.1899598490675,-0.0949799245337499,
0.,0.00686907556182599),.UNSPECIFIED.);
#104=B_SPLINE_CURVE_WITH_KNOTS('',3,(#581,#582,#583,#584,#585,#586,#587,
#588,#589,#590,#591,#592,#593,#594,#595,#596,#597,#598,#599,#600,#601,#602,
#603),.UNSPECIFIED.,.F.,.F.,(4,2,2,2,2,2,2,2,2,3,4),(-0.756000747201592,
-0.749131671666287,-0.654151747132538,-0.559171822598788,-0.466868829215966,
-0.374565835833143,-0.282262842450322,-0.1899598490675,-0.0949799245337499,
0.,0.00686907556182594),.UNSPECIFIED.);
#105=B_SPLINE_CURVE_WITH_KNOTS('',3,(#606,#607,#608,#609,#610,#611,#612,
#613,#614,#615,#616,#617),.UNSPECIFIED.,.F.,.F.,(4,2,2,2,2,4),(-0.756000747201591,
-0.749131671666287,-0.654151747132538,-0.559171822598788,-0.466868829215966,
-0.374565835833144),.UNSPECIFIED.);
#106=B_SPLINE_CURVE_WITH_KNOTS('',3,(#628,#629,#630,#631,#632,#633,#634,
#635,#636,#637,#638,#639,#640,#641,#642,#643,#644,#645),.UNSPECIFIED.,.F.,
 .F.,(4,2,2,2,2,2,2,2,4),(-0.756511688198678,-0.661942318809621,-0.567372949420563,
-0.472814396759951,-0.378255844099339,-0.283697291438727,-0.189138738778115,
-0.0945693693890577,0.),.UNSPECIFIED.);
#107=B_SPLINE_CURVE_WITH_KNOTS('',3,(#649,#650,#651,#652,#653,#654,#655,
#656,#657,#658,#659,#660,#661,#662,#663,#664,#665,#666),.UNSPECIFIED.,.F.,
 .F.,(4,2,2,2,2,2,2,2,4),(-0.756511688198678,-0.661942318809621,-0.567372949420563,
-0.472814396759951,-0.378255844099339,-0.283697291438727,-0.189138738778115,
-0.0945693693890577,0.),.UNSPECIFIED.);
#108=B_SPLINE_CURVE_WITH_KNOTS('',3,(#674,#675,#676,#677,#678,#679,#680,
#681,#682,#683),.UNSPECIFIED.,.F.,.F.,(4,2,2,2,4),(-0.756511688198678,-0.661942318809621,
-0.567372949420563,-0.472814396759951,-0.378255844099339),.UNSPECIFIED.);
#109=B_SPLINE_CURVE_WITH_KNOTS('',3,(#684,#685,#686,#687,#688,#689,#690,
#691,#692,#693),.UNSPECIFIED.,.F.,.F.,(4,2,2,2,4),(-0.378255844099339,-0.283697291438727,
-0.189138738778115,-0.0945693693890577,0.),.UNSPECIFIED.);
#110=B_SPLINE_CURVE_WITH_KNOTS('',3,(#697,#698,#699,#700,#701,#702,#703,
#704,#705,#706,#707,#708,#709,#710,#711,#712,#713,#714),.UNSPECIFIED.,.F.,
 .F.,(4,2,2,2,2,2,2,2,4),(-0.756511688198678,-0.661942318809621,-0.567372949420563,
-0.472814396759951,-0.378255844099339,-0.283697291438727,-0.189138738778115,
-0.0945693693890577,0.),.UNSPECIFIED.);
#111=VERTEX_POINT('',#406);
#112=VERTEX_POINT('',#407);
#113=VERTEX_POINT('',#426);
#114=VERTEX_POINT('',#428);
#115=VERTEX_POINT('',#454);
#116=VERTEX_POINT('',#455);
#117=VERTEX_POINT('',#457);
#118=VERTEX_POINT('',#481);
#119=VERTEX_POINT('',#502);
#120=VERTEX_POINT('',#504);
#121=VERTEX_POINT('',#508);
#122=VERTEX_POINT('',#510);
#123=VERTEX_POINT('',#512);
#124=VERTEX_POINT('',#527);
#125=VERTEX_POINT('',#551);
#126=VERTEX_POINT('',#553);
#127=VERTEX_POINT('',#578);
#128=VERTEX_POINT('',#580);
#129=VERTEX_POINT('',#604);
#130=VERTEX_POINT('',#619);
#131=VERTEX_POINT('',#623);
#132=VERTEX_POINT('',#627);
#133=VERTEX_POINT('',#648);
#134=VERTEX_POINT('',#669);
#135=VERTEX_POINT('',#673);
#136=VERTEX_POINT('',#695);
#137=VERTEX_POINT('',#696);
#138=VERTEX_POINT('',#720);
#139=EDGE_CURVE('',#111,#112,#97,.T.);
#140=EDGE_CURVE('',#113,#111,#69,.T.);
#141=EDGE_CURVE('',#114,#113,#98,.T.);
#142=EDGE_CURVE('',#112,#114,#70,.T.);
#143=EDGE_CURVE('',#115,#116,#71,.T.);
#144=EDGE_CURVE('',#117,#115,#99,.T.);
#145=EDGE_CURVE('',#118,#117,#72,.T.);
#146=EDGE_CURVE('',#116,#118,#100,.T.);
#147=EDGE_CURVE('',#111,#119,#17,.T.);
#148=EDGE_CURVE('',#119,#120,#73,.T.);
#149=EDGE_CURVE('',#113,#120,#18,.T.);
#150=EDGE_CURVE('',#121,#121,#19,.T.);
#151=EDGE_CURVE('',#121,#122,#74,.T.);
#152=EDGE_CURVE('',#122,#123,#101,.T.);
#153=EDGE_CURVE('',#123,#114,#20,.T.);
#154=EDGE_CURVE('',#120,#124,#102,.T.);
#155=EDGE_CURVE('',#124,#125,#21,.T.);
#156=EDGE_CURVE('',#125,#126,#103,.T.);
#157=EDGE_CURVE('',#126,#117,#22,.T.);
#158=EDGE_CURVE('',#115,#127,#23,.T.);
#159=EDGE_CURVE('',#127,#128,#104,.T.);
#160=EDGE_CURVE('',#128,#129,#24,.T.);
#161=EDGE_CURVE('',#129,#122,#105,.T.);
#162=EDGE_CURVE('',#116,#130,#25,.T.);
#163=EDGE_CURVE('',#130,#127,#75,.T.);
#164=EDGE_CURVE('',#126,#131,#76,.T.);
#165=EDGE_CURVE('',#131,#118,#26,.T.);
#166=EDGE_CURVE('',#132,#119,#106,.T.);
#167=EDGE_CURVE('',#124,#132,#77,.T.);
#168=EDGE_CURVE('',#133,#130,#107,.T.);
#169=EDGE_CURVE('',#128,#133,#78,.T.);
#170=EDGE_CURVE('',#132,#134,#27,.T.);
#171=EDGE_CURVE('',#134,#125,#79,.T.);
#172=EDGE_CURVE('',#131,#135,#108,.T.);
#173=EDGE_CURVE('',#135,#134,#109,.T.);
#174=EDGE_CURVE('',#136,#137,#110,.T.);
#175=EDGE_CURVE('',#123,#136,#80,.T.);
#176=EDGE_CURVE('',#137,#129,#81,.T.);
#177=EDGE_CURVE('',#133,#137,#28,.T.);
#178=EDGE_CURVE('',#138,#138,#29,.T.);
#179=EDGE_CURVE('',#138,#135,#82,.T.);
#180=EDGE_CURVE('',#136,#112,#30,.T.);
#181=ORIENTED_EDGE('',*,*,#139,.F.);
#182=ORIENTED_EDGE('',*,*,#140,.F.);
#183=ORIENTED_EDGE('',*,*,#141,.F.);
#184=ORIENTED_EDGE('',*,*,#142,.F.);
#185=ORIENTED_EDGE('',*,*,#143,.F.);
#186=ORIENTED_EDGE('',*,*,#144,.F.);
#187=ORIENTED_EDGE('',*,*,#145,.F.);
#188=ORIENTED_EDGE('',*,*,#146,.F.);
#189=ORIENTED_EDGE('',*,*,#140,.T.);
#190=ORIENTED_EDGE('',*,*,#147,.T.);
#191=ORIENTED_EDGE('',*,*,#148,.T.);
#192=ORIENTED_EDGE('',*,*,#149,.F.);
#193=ORIENTED_EDGE('',*,*,#150,.T.);
#194=ORIENTED_EDGE('',*,*,#151,.T.);
#195=ORIENTED_EDGE('',*,*,#152,.T.);
#196=ORIENTED_EDGE('',*,*,#153,.T.);
#197=ORIENTED_EDGE('',*,*,#141,.T.);
#198=ORIENTED_EDGE('',*,*,#149,.T.);
#199=ORIENTED_EDGE('',*,*,#154,.T.);
#200=ORIENTED_EDGE('',*,*,#155,.T.);
#201=ORIENTED_EDGE('',*,*,#156,.T.);
#202=ORIENTED_EDGE('',*,*,#157,.T.);
#203=ORIENTED_EDGE('',*,*,#144,.T.);
#204=ORIENTED_EDGE('',*,*,#158,.T.);
#205=ORIENTED_EDGE('',*,*,#159,.T.);
#206=ORIENTED_EDGE('',*,*,#160,.T.);
#207=ORIENTED_EDGE('',*,*,#161,.T.);
#208=ORIENTED_EDGE('',*,*,#151,.F.);
#209=ORIENTED_EDGE('',*,*,#143,.T.);
#210=ORIENTED_EDGE('',*,*,#162,.T.);
#211=ORIENTED_EDGE('',*,*,#163,.T.);
#212=ORIENTED_EDGE('',*,*,#158,.F.);
#213=ORIENTED_EDGE('',*,*,#145,.T.);
#214=ORIENTED_EDGE('',*,*,#157,.F.);
#215=ORIENTED_EDGE('',*,*,#164,.T.);
#216=ORIENTED_EDGE('',*,*,#165,.T.);
#217=ORIENTED_EDGE('',*,*,#166,.F.);
#218=ORIENTED_EDGE('',*,*,#167,.F.);
#219=ORIENTED_EDGE('',*,*,#154,.F.);
#220=ORIENTED_EDGE('',*,*,#148,.F.);
#221=ORIENTED_EDGE('',*,*,#159,.F.);
#222=ORIENTED_EDGE('',*,*,#163,.F.);
#223=ORIENTED_EDGE('',*,*,#168,.F.);
#224=ORIENTED_EDGE('',*,*,#169,.F.);
#225=ORIENTED_EDGE('',*,*,#167,.T.);
#226=ORIENTED_EDGE('',*,*,#170,.T.);
#227=ORIENTED_EDGE('',*,*,#171,.T.);
#228=ORIENTED_EDGE('',*,*,#155,.F.);
#229=ORIENTED_EDGE('',*,*,#172,.F.);
#230=ORIENTED_EDGE('',*,*,#164,.F.);
#231=ORIENTED_EDGE('',*,*,#156,.F.);
#232=ORIENTED_EDGE('',*,*,#171,.F.);
#233=ORIENTED_EDGE('',*,*,#173,.F.);
#234=ORIENTED_EDGE('',*,*,#174,.F.);
#235=ORIENTED_EDGE('',*,*,#175,.F.);
#236=ORIENTED_EDGE('',*,*,#152,.F.);
#237=ORIENTED_EDGE('',*,*,#161,.F.);
#238=ORIENTED_EDGE('',*,*,#176,.F.);
#239=ORIENTED_EDGE('',*,*,#169,.T.);
#240=ORIENTED_EDGE('',*,*,#177,.T.);
#241=ORIENTED_EDGE('',*,*,#176,.T.);
#242=ORIENTED_EDGE('',*,*,#160,.F.);
#243=ORIENTED_EDGE('',*,*,#178,.F.);
#244=ORIENTED_EDGE('',*,*,#179,.T.);
#245=ORIENTED_EDGE('',*,*,#173,.T.);
#246=ORIENTED_EDGE('',*,*,#170,.F.);
#247=ORIENTED_EDGE('',*,*,#166,.T.);
#248=ORIENTED_EDGE('',*,*,#147,.F.);
#249=ORIENTED_EDGE('',*,*,#139,.T.);
#250=ORIENTED_EDGE('',*,*,#180,.F.);
#251=ORIENTED_EDGE('',*,*,#174,.T.);
#252=ORIENTED_EDGE('',*,*,#177,.F.);
#253=ORIENTED_EDGE('',*,*,#168,.T.);
#254=ORIENTED_EDGE('',*,*,#162,.F.);
#255=ORIENTED_EDGE('',*,*,#146,.T.);
#256=ORIENTED_EDGE('',*,*,#165,.F.);
#257=ORIENTED_EDGE('',*,*,#172,.T.);
#258=ORIENTED_EDGE('',*,*,#179,.F.);
#259=ORIENTED_EDGE('',*,*,#150,.F.);
#260=ORIENTED_EDGE('',*,*,#178,.T.);
#261=ORIENTED_EDGE('',*,*,#142,.T.);
#262=ORIENTED_EDGE('',*,*,#153,.F.);
#263=ORIENTED_EDGE('',*,*,#175,.T.);
#264=ORIENTED_EDGE('',*,*,#180,.T.);
#265=CYLINDRICAL_SURFACE('',#301,2.5);
#266=CYLINDRICAL_SURFACE('',#302,2.5);
#267=CYLINDRICAL_SURFACE('',#317,2.5);
#268=CYLINDRICAL_SURFACE('',#318,2.5);
#269=CYLINDRICAL_SURFACE('',#321,2.5);
#270=CYLINDRICAL_SURFACE('',#322,2.5);
#271=CYLINDRICAL_SURFACE('',#325,10.5);
#272=ADVANCED_FACE('',(#38),#265,.F.);
#273=ADVANCED_FACE('',(#39),#266,.F.);
#274=ADVANCED_FACE('',(#40),#31,.F.);
#275=ADVANCED_FACE('',(#41),#16,.T.);
#276=ADVANCED_FACE('',(#42),#32,.F.);
#277=ADVANCED_FACE('',(#43),#33,.F.);
#278=ADVANCED_FACE('',(#44),#267,.F.);
#279=ADVANCED_FACE('',(#45),#268,.F.);
#280=ADVANCED_FACE('',(#46),#34,.F.);
#281=ADVANCED_FACE('',(#47),#269,.F.);
#282=ADVANCED_FACE('',(#48),#270,.F.);
#283=ADVANCED_FACE('',(#49),#35,.F.);
#284=ADVANCED_FACE('',(#50),#271,.F.);
#285=ADVANCED_FACE('',(#51,#15),#36,.F.);
#286=ADVANCED_FACE('',(#52),#37,.F.);
#287=CLOSED_SHELL('',(#272,#273,#274,#275,#276,#277,#278,#279,#280,#281,
#282,#283,#284,#285,#286));
#288=DERIVED_UNIT_ELEMENT(#290,1.);
#289=DERIVED_UNIT_ELEMENT(#731,-3.);
#290=(
MASS_UNIT()
NAMED_UNIT(*)
SI_UNIT(.KILO.,.GRAM.)
);
#291=DERIVED_UNIT((#288,#289));
#292=MEASURE_REPRESENTATION_ITEM('density measure',
POSITIVE_RATIO_MEASURE(7850.),#291);
#293=PROPERTY_DEFINITION_REPRESENTATION(#298,#295);
#294=PROPERTY_DEFINITION_REPRESENTATION(#299,#296);
#295=REPRESENTATION('material name',(#297),#728);
#296=REPRESENTATION('density',(#292),#728);
#297=DESCRIPTIVE_REPRESENTATION_ITEM('Steel','Steel');
#298=PROPERTY_DEFINITION('material property','material name',#738);
#299=PROPERTY_DEFINITION('material property','density of part',#738);
#300=AXIS2_PLACEMENT_3D('',#404,#330,#331);
#301=AXIS2_PLACEMENT_3D('',#405,#332,#333);
#302=AXIS2_PLACEMENT_3D('',#453,#336,#337);
#303=AXIS2_PLACEMENT_3D('',#501,#340,#341);
#304=AXIS2_PLACEMENT_3D('',#503,#342,#343);
#305=AXIS2_PLACEMENT_3D('',#506,#345,#346);
#306=AXIS2_PLACEMENT_3D('',#507,#347,#348);
#307=AXIS2_PLACEMENT_3D('',#509,#349,#350);
#308=AXIS2_PLACEMENT_3D('',#526,#352,#353);
#309=AXIS2_PLACEMENT_3D('',#552,#354,#355);
#310=AXIS2_PLACEMENT_3D('',#577,#356,#357);
#311=AXIS2_PLACEMENT_3D('',#579,#358,#359);
#312=AXIS2_PLACEMENT_3D('',#605,#360,#361);
#313=AXIS2_PLACEMENT_3D('',#618,#362,#363);
#314=AXIS2_PLACEMENT_3D('',#620,#364,#365);
#315=AXIS2_PLACEMENT_3D('',#622,#367,#368);
#316=AXIS2_PLACEMENT_3D('',#625,#370,#371);
#317=AXIS2_PLACEMENT_3D('',#626,#372,#373);
#318=AXIS2_PLACEMENT_3D('',#647,#375,#376);
#319=AXIS2_PLACEMENT_3D('',#668,#378,#379);
#320=AXIS2_PLACEMENT_3D('',#670,#380,#381);
#321=AXIS2_PLACEMENT_3D('',#672,#383,#384);
#322=AXIS2_PLACEMENT_3D('',#694,#385,#386);
#323=AXIS2_PLACEMENT_3D('',#717,#389,#390);
#324=AXIS2_PLACEMENT_3D('',#718,#391,#392);
#325=AXIS2_PLACEMENT_3D('',#719,#393,#394);
#326=AXIS2_PLACEMENT_3D('',#721,#395,#396);
#327=AXIS2_PLACEMENT_3D('',#723,#398,#399);
#328=AXIS2_PLACEMENT_3D('',#724,#400,#401);
#329=AXIS2_PLACEMENT_3D('',#725,#402,#403);
#330=DIRECTION('axis',(0.,0.,1.));
#331=DIRECTION('refdir',(1.,0.,0.));
#332=DIRECTION('center_axis',(-0.5,-0.866025403784439,0.));
#333=DIRECTION('ref_axis',(0.866025403784439,-0.5,0.));
#334=DIRECTION('',(0.5,0.866025403784439,0.));
#335=DIRECTION('',(-0.5,-0.866025403784439,0.));
#336=DIRECTION('center_axis',(0.5,0.866025403784439,0.));
#337=DIRECTION('ref_axis',(0.866025403784439,-0.5,0.));
#338=DIRECTION('',(-0.5,-0.866025403784439,0.));
#339=DIRECTION('',(0.5,0.866025403784439,0.));
#340=DIRECTION('center_axis',(0.,0.,1.));
#341=DIRECTION('ref_axis',(1.,0.,0.));
#342=DIRECTION('center_axis',(0.,0.,1.));
#343=DIRECTION('ref_axis',(-1.,0.,0.));
#344=DIRECTION('',(0.5,-0.866025403784439,0.));
#345=DIRECTION('center_axis',(0.,0.,1.));
#346=DIRECTION('ref_axis',(1.,0.,0.));
#347=DIRECTION('center_axis',(0.,0.,-1.));
#348=DIRECTION('ref_axis',(1.,0.,0.));
#349=DIRECTION('center_axis',(0.,0.,-1.));
#350=DIRECTION('ref_axis',(1.,0.,0.));
#351=DIRECTION('',(-0.257662650560332,-3.15545740268534E-17,-0.966234939601246));
#352=DIRECTION('center_axis',(0.,0.,1.));
#353=DIRECTION('ref_axis',(1.,0.,0.));
#354=DIRECTION('center_axis',(0.,0.,1.));
#355=DIRECTION('ref_axis',(1.,0.,0.));
#356=DIRECTION('center_axis',(0.,0.,1.));
#357=DIRECTION('ref_axis',(1.,0.,0.));
#358=DIRECTION('center_axis',(0.,0.,1.));
#359=DIRECTION('ref_axis',(1.,0.,0.));
#360=DIRECTION('center_axis',(0.,0.,1.));
#361=DIRECTION('ref_axis',(1.,0.,0.));
#362=DIRECTION('center_axis',(0.,0.,1.));
#363=DIRECTION('ref_axis',(1.,0.,0.));
#364=DIRECTION('center_axis',(0.,0.,1.));
#365=DIRECTION('ref_axis',(-1.,0.,0.));
#366=DIRECTION('',(-0.5,0.866025403784439,0.));
#367=DIRECTION('center_axis',(0.,0.,1.));
#368=DIRECTION('ref_axis',(1.,0.,0.));
#369=DIRECTION('',(-1.,0.,0.));
#370=DIRECTION('center_axis',(0.,0.,1.));
#371=DIRECTION('ref_axis',(-1.,0.,0.));
#372=DIRECTION('center_axis',(0.5,-0.866025403784439,0.));
#373=DIRECTION('ref_axis',(0.866025403784439,0.5,0.));
#374=DIRECTION('',(-0.5,0.866025403784439,0.));
#375=DIRECTION('center_axis',(-0.5,0.866025403784439,0.));
#376=DIRECTION('ref_axis',(0.866025403784439,0.5,0.));
#377=DIRECTION('',(0.5,-0.866025403784439,0.));
#378=DIRECTION('center_axis',(0.,0.,1.));
#379=DIRECTION('ref_axis',(1.,0.,0.));
#380=DIRECTION('center_axis',(0.,0.,1.));
#381=DIRECTION('ref_axis',(-1.,0.,0.));
#382=DIRECTION('',(1.,0.,0.));
#383=DIRECTION('center_axis',(1.,0.,0.));
#384=DIRECTION('ref_axis',(0.,1.,0.));
#385=DIRECTION('center_axis',(-1.,0.,0.));
#386=DIRECTION('ref_axis',(0.,1.,0.));
#387=DIRECTION('',(1.,0.,0.));
#388=DIRECTION('',(-1.,0.,0.));
#389=DIRECTION('center_axis',(0.,0.,1.));
#390=DIRECTION('ref_axis',(1.,0.,0.));
#391=DIRECTION('center_axis',(0.,0.,1.));
#392=DIRECTION('ref_axis',(-1.,0.,0.));
#393=DIRECTION('center_axis',(0.,0.,-1.));
#394=DIRECTION('ref_axis',(-1.,0.,0.));
#395=DIRECTION('center_axis',(0.,0.,-1.));
#396=DIRECTION('ref_axis',(-1.,0.,0.));
#397=DIRECTION('',(0.,0.,-1.));
#398=DIRECTION('center_axis',(0.,0.,1.));
#399=DIRECTION('ref_axis',(-1.,0.,0.));
#400=DIRECTION('center_axis',(0.,0.,-1.));
#401=DIRECTION('ref_axis',(-1.,0.,0.));
#402=DIRECTION('center_axis',(0.,0.,1.));
#403=DIRECTION('ref_axis',(1.,0.,0.));
#404=CARTESIAN_POINT('',(0.,0.,0.));
#405=CARTESIAN_POINT('Origin',(0.,0.,0.));
#406=CARTESIAN_POINT('',(-2.93395600413169,-10.0817608663278,0.));
#407=CARTESIAN_POINT('',(-7.26408302305388,-7.58176086632785,0.));
#408=CARTESIAN_POINT('Ctrl Pts',(-2.93395600413169,-10.0817608663278,0.));
#409=CARTESIAN_POINT('Ctrl Pts',(-2.93395600413169,-10.0817608663278,0.315231231296859));
#410=CARTESIAN_POINT('Ctrl Pts',(-2.99679858736315,-10.0641118778591,0.650606423438285));
#411=CARTESIAN_POINT('Ctrl Pts',(-3.24686640609116,-9.98624092326431,1.26617211023766));
#412=CARTESIAN_POINT('Ctrl Pts',(-3.43358481723179,-9.92526548502129,1.54647284119337));
#413=CARTESIAN_POINT('Ctrl Pts',(-3.85464969471219,-9.76944542170613,1.98903575339036));
#414=CARTESIAN_POINT('Ctrl Pts',(-4.11742905654438,-9.66396997528521,2.18124612059984));
#415=CARTESIAN_POINT('Ctrl Pts',(-4.67876923297392,-9.40503355535255,2.43676108010983));
#416=CARTESIAN_POINT('Ctrl Pts',(-4.97703297083607,-9.25086432750429,2.5));
#417=CARTESIAN_POINT('Ctrl Pts',(-5.52296702916393,-8.93566915196892,2.5));
#418=CARTESIAN_POINT('Ctrl Pts',(-5.80561336589342,-8.75444979187673,2.43676108010983));
#419=CARTESIAN_POINT('Ctrl Pts',(-6.31052897173487,-8.39778314889024,2.18124612059984));
#420=CARTESIAN_POINT('Ctrl Pts',(-6.53326306872699,-8.22294726916376,1.98903575339036));
#421=CARTESIAN_POINT('Ctrl Pts',(-6.87873964071741,-7.93620442028193,1.54647284119338));
#422=CARTESIAN_POINT('Ctrl Pts',(-7.02490512481308,-7.80498925200138,1.26617211023766));
#423=CARTESIAN_POINT('Ctrl Pts',(-7.21737725907309,-7.62735964561134,0.650606423438286));
#424=CARTESIAN_POINT('Ctrl Pts',(-7.26408302305388,-7.58176086632785,0.315231231296859));
#425=CARTESIAN_POINT('Ctrl Pts',(-7.26408302305388,-7.58176086632785,0.));
#426=CARTESIAN_POINT('',(-10.2722794543716,-22.7921099245176,0.));
#427=CARTESIAN_POINT('',(2.1650635094611,-1.25,0.));
#428=CARTESIAN_POINT('',(-14.6024064732938,-20.2921099245176,0.));
#429=CARTESIAN_POINT('Ctrl Pts',(-14.6024064732938,-20.2921099245176,-4.03376841206001E-16));
#430=CARTESIAN_POINT('Ctrl Pts',(-14.5994161128533,-20.2869304683016,0.0223152830309363));
#431=CARTESIAN_POINT('Ctrl Pts',(-14.5961936874667,-20.2819468018518,0.0445428640500971));
#432=CARTESIAN_POINT('Ctrl Pts',(-14.5450969717247,-20.2109460401039,0.372576405483996));
#433=CARTESIAN_POINT('Ctrl Pts',(-14.4455042745933,-20.1753275372689,0.700056489969432));
#434=CARTESIAN_POINT('Ctrl Pts',(-14.1481082928021,-20.1886401527729,1.30398202251678));
#435=CARTESIAN_POINT('Ctrl Pts',(-13.9500615239372,-20.2373886707497,1.58031155090273));
#436=CARTESIAN_POINT('Ctrl Pts',(-13.5229997473797,-20.3877646599991,2.01010954506612));
#437=CARTESIAN_POINT('Ctrl Pts',(-13.2671336104573,-20.4976513706438,2.19471137422859));
#438=CARTESIAN_POINT('Ctrl Pts',(-12.7222742634483,-20.7636442133798,2.43966807778747));
#439=CARTESIAN_POINT('Ctrl Pts',(-12.4331224570496,-20.9194465031166,2.5));
#440=CARTESIAN_POINT('Ctrl Pts',(-11.9002108762838,-21.227123147726,2.5));
#441=CARTESIAN_POINT('Ctrl Pts',(-11.6207062322045,-21.399634812749,2.43966807778747));
#442=CARTESIAN_POINT('Ctrl Pts',(-11.1179199996658,-21.7385004273803,2.1947113742286));
#443=CARTESIAN_POINT('Ctrl Pts',(-10.894822248248,-21.9051436466009,2.01010954506612));
#444=CARTESIAN_POINT('Ctrl Pts',(-10.55106193316,-22.1998019994603,1.58031155090273));
#445=CARTESIAN_POINT('Ctrl Pts',(-10.4098210937628,-22.3469412734464,1.30398202251678));
#446=CARTESIAN_POINT('Ctrl Pts',(-10.2495940396499,-22.5978374409089,0.700056489969425));
#447=CARTESIAN_POINT('Ctrl Pts',(-10.2306442193841,-22.7018964980736,0.372576405483996));
#448=CARTESIAN_POINT('Ctrl Pts',(-10.2641603904307,-22.7762691993225,0.0666666666666667));
#449=CARTESIAN_POINT('Ctrl Pts',(-10.2665843248842,-22.7816479328509,0.0445428639646761));
#450=CARTESIAN_POINT('Ctrl Pts',(-10.2692890939417,-22.7869304683201,0.0223152829513689));
#451=CARTESIAN_POINT('Ctrl Pts',(-10.2722794543716,-22.7921099245176,-9.80894825592628E-16));
#452=CARTESIAN_POINT('',(-2.1650635094611,1.25,0.));
#453=CARTESIAN_POINT('Origin',(0.,0.,0.));
#454=CARTESIAN_POINT('',(10.2722794543716,22.7921099245176,0.));
#455=CARTESIAN_POINT('',(2.93395600413169,10.0817608663278,0.));
#456=CARTESIAN_POINT('',(-2.1650635094611,1.25,0.));
#457=CARTESIAN_POINT('',(14.6024064732938,20.2921099245176,0.));
#458=CARTESIAN_POINT('Ctrl Pts',(14.6024064732938,20.2921099245176,6.66760146365976E-16));
#459=CARTESIAN_POINT('Ctrl Pts',(14.5994161128533,20.2869304683016,0.0223152830309376));
#460=CARTESIAN_POINT('Ctrl Pts',(14.5961936874667,20.2819468018518,0.0445428640500971));
#461=CARTESIAN_POINT('Ctrl Pts',(14.5450969717247,20.2109460401039,0.372576405483996));
#462=CARTESIAN_POINT('Ctrl Pts',(14.4455042745933,20.1753275372689,0.700056489969429));
#463=CARTESIAN_POINT('Ctrl Pts',(14.1481082928021,20.1886401527729,1.30398202251678));
#464=CARTESIAN_POINT('Ctrl Pts',(13.9500615239372,20.2373886707497,1.58031155090273));
#465=CARTESIAN_POINT('Ctrl Pts',(13.5229997473797,20.3877646599991,2.01010954506612));
#466=CARTESIAN_POINT('Ctrl Pts',(13.2671336104573,20.4976513706438,2.19471137422859));
#467=CARTESIAN_POINT('Ctrl Pts',(12.7222742634483,20.7636442133798,2.43966807778747));
#468=CARTESIAN_POINT('Ctrl Pts',(12.4331224570496,20.9194465031166,2.5));
#469=CARTESIAN_POINT('Ctrl Pts',(11.9002108762838,21.227123147726,2.5));
#470=CARTESIAN_POINT('Ctrl Pts',(11.6207062322045,21.399634812749,2.43966807778747));
#471=CARTESIAN_POINT('Ctrl Pts',(11.1179199996658,21.7385004273803,2.1947113742286));
#472=CARTESIAN_POINT('Ctrl Pts',(10.894822248248,21.9051436466009,2.01010954506612));
#473=CARTESIAN_POINT('Ctrl Pts',(10.55106193316,22.1998019994603,1.58031155090273));
#474=CARTESIAN_POINT('Ctrl Pts',(10.4098210937628,22.3469412734464,1.30398202251678));
#475=CARTESIAN_POINT('Ctrl Pts',(10.2495940396499,22.5978374409089,0.700056489969431));
#476=CARTESIAN_POINT('Ctrl Pts',(10.2306442193841,22.7018964980736,0.372576405483996));
#477=CARTESIAN_POINT('Ctrl Pts',(10.2641603904307,22.7762691993225,0.0666666666666667));
#478=CARTESIAN_POINT('Ctrl Pts',(10.2665843248842,22.7816479328509,0.0445428639646763));
#479=CARTESIAN_POINT('Ctrl Pts',(10.2692890939417,22.7869304683201,0.0223152829513699));
#480=CARTESIAN_POINT('Ctrl Pts',(10.2722794543716,22.7921099245176,2.00779077069847E-16));
#481=CARTESIAN_POINT('',(7.26408302305388,7.58176086632785,0.));
#482=CARTESIAN_POINT('',(2.1650635094611,-1.25,0.));
#483=CARTESIAN_POINT('Ctrl Pts',(2.93395600413169,10.0817608663278,-6.93889390390723E-17));
#484=CARTESIAN_POINT('Ctrl Pts',(2.93395600413169,10.0817608663278,0.315231231296859));
#485=CARTESIAN_POINT('Ctrl Pts',(2.99679858736314,10.0641118778591,0.650606423438285));
#486=CARTESIAN_POINT('Ctrl Pts',(3.24686640609116,9.98624092326431,1.26617211023766));
#487=CARTESIAN_POINT('Ctrl Pts',(3.43358481723179,9.92526548502129,1.54647284119337));
#488=CARTESIAN_POINT('Ctrl Pts',(3.85464969471219,9.76944542170614,1.98903575339036));
#489=CARTESIAN_POINT('Ctrl Pts',(4.11742905654438,9.66396997528521,2.18124612059984));
#490=CARTESIAN_POINT('Ctrl Pts',(4.67876923297392,9.40503355535255,2.43676108010983));
#491=CARTESIAN_POINT('Ctrl Pts',(4.97703297083607,9.2508643275043,2.5));
#492=CARTESIAN_POINT('Ctrl Pts',(5.52296702916393,8.93566915196892,2.5));
#493=CARTESIAN_POINT('Ctrl Pts',(5.80561336589342,8.75444979187673,2.43676108010983));
#494=CARTESIAN_POINT('Ctrl Pts',(6.31052897173487,8.39778314889024,2.18124612059984));
#495=CARTESIAN_POINT('Ctrl Pts',(6.53326306872699,8.22294726916376,1.98903575339036));
#496=CARTESIAN_POINT('Ctrl Pts',(6.87873964071741,7.93620442028193,1.54647284119338));
#497=CARTESIAN_POINT('Ctrl Pts',(7.02490512481308,7.80498925200138,1.26617211023766));
#498=CARTESIAN_POINT('Ctrl Pts',(7.21737725907309,7.62735964561134,0.650606423438285));
#499=CARTESIAN_POINT('Ctrl Pts',(7.26408302305388,7.58176086632785,0.315231231296859));
#500=CARTESIAN_POINT('Ctrl Pts',(7.26408302305388,7.58176086632785,0.));
#501=CARTESIAN_POINT('Origin',(0.,0.,0.));
#502=CARTESIAN_POINT('',(2.93395600413169,-10.0817608663278,0.));
#503=CARTESIAN_POINT('Origin',(0.,0.,0.));
#504=CARTESIAN_POINT('',(10.2722794543716,-22.7921099245176,0.));
#505=CARTESIAN_POINT('',(-2.1650635094611,-1.25,0.));
#506=CARTESIAN_POINT('Origin',(0.,0.,0.));
#507=CARTESIAN_POINT('Origin',(0.,0.,0.));
#508=CARTESIAN_POINT('',(-17.,-2.0818995585505E-15,30.));
#509=CARTESIAN_POINT('Origin',(0.,0.,30.));
#510=CARTESIAN_POINT('',(-24.3333333333333,-1.10834777424772E-15,2.5));
#511=CARTESIAN_POINT('',(-25.,-3.06161699786838E-15,0.));
#512=CARTESIAN_POINT('',(-24.8746859276655,-2.5,0.));
#513=CARTESIAN_POINT('Ctrl Pts',(-24.3333333333333,7.63278329429795E-16,
2.5));
#514=CARTESIAN_POINT('Ctrl Pts',(-24.3333333333333,-0.307676644609406,2.5));
#515=CARTESIAN_POINT('Ctrl Pts',(-24.3429804956528,-0.635990599369269,2.43966807778747));
#516=CARTESIAN_POINT('Ctrl Pts',(-24.3850536101231,-1.24084905673653,2.19471137422859));
#517=CARTESIAN_POINT('Ctrl Pts',(-24.4178219956277,-1.51737898660179,2.01010954506612));
#518=CARTESIAN_POINT('Ctrl Pts',(-24.5011234570972,-1.96241332871061,1.58031155090273));
#519=CARTESIAN_POINT('Ctrl Pts',(-24.5579293865649,-2.1583011206735,1.30398202251678));
#520=CARTESIAN_POINT('Ctrl Pts',(-24.6950983142432,-2.42250990364005,0.700056489969431));
#521=CARTESIAN_POINT('Ctrl Pts',(-24.7757411911088,-2.49095045796972,0.372576405483996));
#522=CARTESIAN_POINT('Ctrl Pts',(-24.8569079252617,-2.49911095303021,0.0666666666666666));
#523=CARTESIAN_POINT('Ctrl Pts',(-24.8627780123642,-2.49970113098063,0.0445428639646758));
#524=CARTESIAN_POINT('Ctrl Pts',(-24.8687052068057,-2.5,0.0223152829513711));
#525=CARTESIAN_POINT('Ctrl Pts',(-24.8746859276655,-2.5,5.57728426960649E-17));
#526=CARTESIAN_POINT('Origin',(0.,0.,0.));
#527=CARTESIAN_POINT('',(14.6024064732938,-20.2921099245176,0.));
#528=CARTESIAN_POINT('Ctrl Pts',(10.2722794543717,-22.7921099245176,-6.95538254382845E-16));
#529=CARTESIAN_POINT('Ctrl Pts',(10.2692890939311,-22.7869304683016,0.022315283030936));
#530=CARTESIAN_POINT('Ctrl Pts',(10.2665843248748,-22.7816479328301,0.044542864050097));
#531=CARTESIAN_POINT('Ctrl Pts',(10.2306442193841,-22.7018964980736,0.372576405483996));
#532=CARTESIAN_POINT('Ctrl Pts',(10.2495940396499,-22.5978374409089,0.700056489969428));
#533=CARTESIAN_POINT('Ctrl Pts',(10.4098210937628,-22.3469412734464,1.30398202251678));
#534=CARTESIAN_POINT('Ctrl Pts',(10.5510619331601,-22.1998019994603,1.58031155090273));
#535=CARTESIAN_POINT('Ctrl Pts',(10.894822248248,-21.9051436466009,2.01010954506612));
#536=CARTESIAN_POINT('Ctrl Pts',(11.1179199996658,-21.7385004273803,2.19471137422859));
#537=CARTESIAN_POINT('Ctrl Pts',(11.6207062322045,-21.399634812749,2.43966807778747));
#538=CARTESIAN_POINT('Ctrl Pts',(11.9002108762838,-21.227123147726,2.5));
#539=CARTESIAN_POINT('Ctrl Pts',(12.4331224570496,-20.9194465031166,2.5));
#540=CARTESIAN_POINT('Ctrl Pts',(12.7222742634483,-20.7636442133798,2.43966807778747));
#541=CARTESIAN_POINT('Ctrl Pts',(13.2671336104574,-20.4976513706438,2.19471137422859));
#542=CARTESIAN_POINT('Ctrl Pts',(13.5229997473797,-20.3877646599991,2.01010954506612));
#543=CARTESIAN_POINT('Ctrl Pts',(13.9500615239372,-20.2373886707497,1.58031155090273));
#544=CARTESIAN_POINT('Ctrl Pts',(14.1481082928021,-20.1886401527729,1.30398202251678));
#545=CARTESIAN_POINT('Ctrl Pts',(14.4455042745933,-20.1753275372689,0.700056489969431));
#546=CARTESIAN_POINT('Ctrl Pts',(14.5450969717247,-20.2109460401039,0.372576405483996));
#547=CARTESIAN_POINT('Ctrl Pts',(14.592747534831,-20.2771582462923,0.0666666666666666));
#548=CARTESIAN_POINT('Ctrl Pts',(14.59619368748,-20.2819468018703,0.044542863964676));
#549=CARTESIAN_POINT('Ctrl Pts',(14.5994161128639,-20.2869304683201,0.0223152829513707));
#550=CARTESIAN_POINT('Ctrl Pts',(14.6024064732938,-20.2921099245176,4.51702605052039E-16));
#551=CARTESIAN_POINT('',(24.8746859276655,-2.5,0.));
#552=CARTESIAN_POINT('Origin',(0.,0.,0.));
#553=CARTESIAN_POINT('',(24.8746859276655,2.5,0.));
#554=CARTESIAN_POINT('Ctrl Pts',(24.8746859276655,-2.5,-5.58017855308921E-17));
#555=CARTESIAN_POINT('Ctrl Pts',(24.8687052067843,-2.5,0.0223152830309361));
#556=CARTESIAN_POINT('Ctrl Pts',(24.8627780123415,-2.49970113097835,0.0445428640500963));
#557=CARTESIAN_POINT('Ctrl Pts',(24.7757411911088,-2.49095045796972,0.372576405483996));
#558=CARTESIAN_POINT('Ctrl Pts',(24.6950983142432,-2.42250990364005,0.700056489969431));
#559=CARTESIAN_POINT('Ctrl Pts',(24.5579293865649,-2.1583011206735,1.30398202251678));
#560=CARTESIAN_POINT('Ctrl Pts',(24.5011234570972,-1.96241332871061,1.58031155090273));
#561=CARTESIAN_POINT('Ctrl Pts',(24.4178219956277,-1.5173789866018,2.01010954506612));
#562=CARTESIAN_POINT('Ctrl Pts',(24.3850536101231,-1.24084905673653,2.19471137422859));
#563=CARTESIAN_POINT('Ctrl Pts',(24.3429804956528,-0.635990599369266,2.43966807778747));
#564=CARTESIAN_POINT('Ctrl Pts',(24.3333333333333,-0.307676644609407,2.5));
#565=CARTESIAN_POINT('Ctrl Pts',(24.3333333333333,0.307676644609407,2.5));
#566=CARTESIAN_POINT('Ctrl Pts',(24.3429804956528,0.635990599369265,2.43966807778747));
#567=CARTESIAN_POINT('Ctrl Pts',(24.3850536101231,1.24084905673653,2.19471137422859));
#568=CARTESIAN_POINT('Ctrl Pts',(24.4178219956277,1.5173789866018,2.01010954506612));
#569=CARTESIAN_POINT('Ctrl Pts',(24.5011234570972,1.96241332871061,1.58031155090273));
#570=CARTESIAN_POINT('Ctrl Pts',(24.5579293865649,2.1583011206735,1.30398202251678));
#571=CARTESIAN_POINT('Ctrl Pts',(24.6950983142432,2.42250990364005,0.700056489969431));
#572=CARTESIAN_POINT('Ctrl Pts',(24.7757411911088,2.49095045796972,0.372576405483996));
#573=CARTESIAN_POINT('Ctrl Pts',(24.8569079252617,2.49911095303021,0.0666666666666666));
#574=CARTESIAN_POINT('Ctrl Pts',(24.8627780123642,2.49970113098063,0.0445428639646755));
#575=CARTESIAN_POINT('Ctrl Pts',(24.8687052068057,2.5,0.0223152829513702));
#576=CARTESIAN_POINT('Ctrl Pts',(24.8746859276655,2.5,-5.58017855308856E-17));
#577=CARTESIAN_POINT('Origin',(0.,0.,0.));
#578=CARTESIAN_POINT('',(-10.2722794543717,22.7921099245176,0.));
#579=CARTESIAN_POINT('Origin',(0.,0.,0.));
#580=CARTESIAN_POINT('',(-14.6024064732938,20.2921099245176,0.));
#581=CARTESIAN_POINT('Ctrl Pts',(-10.2722794543717,22.7921099245176,0.));
#582=CARTESIAN_POINT('Ctrl Pts',(-10.2692890939311,22.7869304683016,0.0223152830309373));
#583=CARTESIAN_POINT('Ctrl Pts',(-10.2665843248748,22.7816479328301,0.0445428640500966));
#584=CARTESIAN_POINT('Ctrl Pts',(-10.2306442193842,22.7018964980736,0.372576405483996));
#585=CARTESIAN_POINT('Ctrl Pts',(-10.2495940396499,22.5978374409089,0.700056489969432));
#586=CARTESIAN_POINT('Ctrl Pts',(-10.4098210937628,22.3469412734464,1.30398202251678));
#587=CARTESIAN_POINT('Ctrl Pts',(-10.5510619331601,22.1998019994603,1.58031155090273));
#588=CARTESIAN_POINT('Ctrl Pts',(-10.894822248248,21.9051436466009,2.01010954506612));
#589=CARTESIAN_POINT('Ctrl Pts',(-11.1179199996658,21.7385004273803,2.19471137422859));
#590=CARTESIAN_POINT('Ctrl Pts',(-11.6207062322045,21.399634812749,2.43966807778747));
#591=CARTESIAN_POINT('Ctrl Pts',(-11.9002108762838,21.227123147726,2.5));
#592=CARTESIAN_POINT('Ctrl Pts',(-12.4331224570496,20.9194465031166,2.5));
#593=CARTESIAN_POINT('Ctrl Pts',(-12.7222742634483,20.7636442133798,2.43966807778747));
#594=CARTESIAN_POINT('Ctrl Pts',(-13.2671336104574,20.4976513706438,2.19471137422859));
#595=CARTESIAN_POINT('Ctrl Pts',(-13.5229997473797,20.3877646599991,2.01010954506612));
#596=CARTESIAN_POINT('Ctrl Pts',(-13.9500615239372,20.2373886707497,1.58031155090273));
#597=CARTESIAN_POINT('Ctrl Pts',(-14.1481082928021,20.1886401527729,1.30398202251678));
#598=CARTESIAN_POINT('Ctrl Pts',(-14.4455042745933,20.1753275372689,0.70005648996943));
#599=CARTESIAN_POINT('Ctrl Pts',(-14.5450969717247,20.2109460401039,0.372576405483996));
#600=CARTESIAN_POINT('Ctrl Pts',(-14.592747534831,20.2771582462923,0.0666666666666667));
#601=CARTESIAN_POINT('Ctrl Pts',(-14.59619368748,20.2819468018703,0.0445428639646757));
#602=CARTESIAN_POINT('Ctrl Pts',(-14.5994161128639,20.2869304683201,0.02231528295137));
#603=CARTESIAN_POINT('Ctrl Pts',(-14.6024064732938,20.2921099245176,-3.67510854536979E-16));
#604=CARTESIAN_POINT('',(-24.8746859276655,2.5,0.));
#605=CARTESIAN_POINT('Origin',(0.,0.,0.));
#606=CARTESIAN_POINT('Ctrl Pts',(-24.8746859276655,2.5,5.57728426960749E-17));
#607=CARTESIAN_POINT('Ctrl Pts',(-24.8687052067843,2.5,0.0223152830309356));
#608=CARTESIAN_POINT('Ctrl Pts',(-24.8627780123415,2.49970113097835,0.0445428640500971));
#609=CARTESIAN_POINT('Ctrl Pts',(-24.7757411911088,2.49095045796972,0.372576405483996));
#610=CARTESIAN_POINT('Ctrl Pts',(-24.6950983142432,2.42250990364005,0.700056489969431));
#611=CARTESIAN_POINT('Ctrl Pts',(-24.5579293865649,2.1583011206735,1.30398202251678));
#612=CARTESIAN_POINT('Ctrl Pts',(-24.5011234570972,1.96241332871061,1.58031155090273));
#613=CARTESIAN_POINT('Ctrl Pts',(-24.4178219956277,1.5173789866018,2.01010954506612));
#614=CARTESIAN_POINT('Ctrl Pts',(-24.3850536101231,1.24084905673653,2.19471137422859));
#615=CARTESIAN_POINT('Ctrl Pts',(-24.3429804956528,0.63599059936927,2.43966807778747));
#616=CARTESIAN_POINT('Ctrl Pts',(-24.3333333333333,0.307676644609408,2.5));
#617=CARTESIAN_POINT('Ctrl Pts',(-24.3333333333333,6.93889390390723E-16,
2.5));
#618=CARTESIAN_POINT('Origin',(0.,0.,0.));
#619=CARTESIAN_POINT('',(-2.93395600413169,10.0817608663278,0.));
#620=CARTESIAN_POINT('Origin',(0.,0.,0.));
#621=CARTESIAN_POINT('',(2.1650635094611,1.25,0.));
#622=CARTESIAN_POINT('Origin',(0.,0.,0.));
#623=CARTESIAN_POINT('',(10.1980390271856,2.5,0.));
#624=CARTESIAN_POINT('',(0.,2.5,0.));
#625=CARTESIAN_POINT('Origin',(0.,0.,0.));
#626=CARTESIAN_POINT('Origin',(0.,0.,0.));
#627=CARTESIAN_POINT('',(7.26408302305388,-7.58176086632785,0.));
#628=CARTESIAN_POINT('Ctrl Pts',(7.26408302305388,-7.58176086632785,6.93889390390723E-17));
#629=CARTESIAN_POINT('Ctrl Pts',(7.26408302305388,-7.58176086632785,0.315231231296859));
#630=CARTESIAN_POINT('Ctrl Pts',(7.21737725907309,-7.62735964561134,0.650606423438285));
#631=CARTESIAN_POINT('Ctrl Pts',(7.02490512481308,-7.80498925200138,1.26617211023766));
#632=CARTESIAN_POINT('Ctrl Pts',(6.87873964071742,-7.93620442028192,1.54647284119338));
#633=CARTESIAN_POINT('Ctrl Pts',(6.533263068727,-8.22294726916375,1.98903575339036));
#634=CARTESIAN_POINT('Ctrl Pts',(6.31052897173487,-8.39778314889024,2.18124612059984));
#635=CARTESIAN_POINT('Ctrl Pts',(5.80561336589343,-8.75444979187672,2.43676108010983));
#636=CARTESIAN_POINT('Ctrl Pts',(5.52296702916393,-8.93566915196892,2.5));
#637=CARTESIAN_POINT('Ctrl Pts',(4.97703297083607,-9.25086432750429,2.5));
#638=CARTESIAN_POINT('Ctrl Pts',(4.67876923297393,-9.40503355535254,2.43676108010983));
#639=CARTESIAN_POINT('Ctrl Pts',(4.11742905654439,-9.66396997528521,2.18124612059984));
#640=CARTESIAN_POINT('Ctrl Pts',(3.85464969471219,-9.76944542170613,1.98903575339036));
#641=CARTESIAN_POINT('Ctrl Pts',(3.43358481723179,-9.92526548502129,1.54647284119338));
#642=CARTESIAN_POINT('Ctrl Pts',(3.24686640609116,-9.98624092326431,1.26617211023766));
#643=CARTESIAN_POINT('Ctrl Pts',(2.99679858736315,-10.0641118778591,0.650606423438285));
#644=CARTESIAN_POINT('Ctrl Pts',(2.93395600413169,-10.0817608663278,0.315231231296859));
#645=CARTESIAN_POINT('Ctrl Pts',(2.93395600413169,-10.0817608663278,-1.38777878078145E-16));
#646=CARTESIAN_POINT('',(2.1650635094611,1.25,0.));
#647=CARTESIAN_POINT('Origin',(0.,0.,0.));
#648=CARTESIAN_POINT('',(-7.26408302305388,7.58176086632785,0.));
#649=CARTESIAN_POINT('Ctrl Pts',(-7.26408302305388,7.58176086632785,6.93889390390723E-17));
#650=CARTESIAN_POINT('Ctrl Pts',(-7.26408302305388,7.58176086632785,0.315231231296859));
#651=CARTESIAN_POINT('Ctrl Pts',(-7.21737725907309,7.62735964561133,0.650606423438285));
#652=CARTESIAN_POINT('Ctrl Pts',(-7.02490512481308,7.80498925200138,1.26617211023766));
#653=CARTESIAN_POINT('Ctrl Pts',(-6.87873964071742,7.93620442028192,1.54647284119337));
#654=CARTESIAN_POINT('Ctrl Pts',(-6.533263068727,8.22294726916375,1.98903575339036));
#655=CARTESIAN_POINT('Ctrl Pts',(-6.31052897173487,8.39778314889024,2.18124612059984));
#656=CARTESIAN_POINT('Ctrl Pts',(-5.80561336589343,8.75444979187672,2.43676108010983));
#657=CARTESIAN_POINT('Ctrl Pts',(-5.52296702916393,8.93566915196892,2.5));
#658=CARTESIAN_POINT('Ctrl Pts',(-4.97703297083607,9.25086432750429,2.5));
#659=CARTESIAN_POINT('Ctrl Pts',(-4.67876923297393,9.40503355535254,2.43676108010983));
#660=CARTESIAN_POINT('Ctrl Pts',(-4.11742905654439,9.66396997528521,2.18124612059984));
#661=CARTESIAN_POINT('Ctrl Pts',(-3.85464969471219,9.76944542170613,1.98903575339036));
#662=CARTESIAN_POINT('Ctrl Pts',(-3.43358481723179,9.92526548502129,1.54647284119338));
#663=CARTESIAN_POINT('Ctrl Pts',(-3.24686640609116,9.98624092326431,1.26617211023766));
#664=CARTESIAN_POINT('Ctrl Pts',(-2.99679858736315,10.0641118778591,0.650606423438285));
#665=CARTESIAN_POINT('Ctrl Pts',(-2.93395600413169,10.0817608663278,0.315231231296859));
#666=CARTESIAN_POINT('Ctrl Pts',(-2.93395600413169,10.0817608663278,0.));
#667=CARTESIAN_POINT('',(-2.1650635094611,-1.25,0.));
#668=CARTESIAN_POINT('Origin',(0.,0.,0.));
#669=CARTESIAN_POINT('',(10.1980390271856,-2.5,0.));
#670=CARTESIAN_POINT('Origin',(0.,0.,0.));
#671=CARTESIAN_POINT('',(0.,-2.5,0.));
#672=CARTESIAN_POINT('Origin',(0.,0.,0.));
#673=CARTESIAN_POINT('',(10.5,-2.95994874356999E-16,2.5));
#674=CARTESIAN_POINT('Ctrl Pts',(10.1980390271856,2.5,0.));
#675=CARTESIAN_POINT('Ctrl Pts',(10.1980390271856,2.5,0.315231231296859));
#676=CARTESIAN_POINT('Ctrl Pts',(10.2141758464362,2.43675223224773,0.650606423438285));
#677=CARTESIAN_POINT('Ctrl Pts',(10.2717715309042,2.18125167126293,1.26617211023766));
#678=CARTESIAN_POINT('Ctrl Pts',(10.3123244579492,1.98906106473936,1.54647284119338));
#679=CARTESIAN_POINT('Ctrl Pts',(10.3879127634392,1.54649815254238,1.98903575339036));
#680=CARTESIAN_POINT('Ctrl Pts',(10.4279580282793,1.26618682639497,2.18124612059984));
#681=CARTESIAN_POINT('Ctrl Pts',(10.4843825988673,0.650583763475825,2.43676108010983));
#682=CARTESIAN_POINT('Ctrl Pts',(10.5,0.315195175535374,2.5));
#683=CARTESIAN_POINT('Ctrl Pts',(10.5,6.93889390390723E-16,2.5));
#684=CARTESIAN_POINT('Ctrl Pts',(10.5,7.63278329429795E-16,2.5));
#685=CARTESIAN_POINT('Ctrl Pts',(10.5,-0.315195175535372,2.5));
#686=CARTESIAN_POINT('Ctrl Pts',(10.4843825988673,-0.650583763475823,2.43676108010983));
#687=CARTESIAN_POINT('Ctrl Pts',(10.4279580282793,-1.26618682639497,2.18124612059984));
#688=CARTESIAN_POINT('Ctrl Pts',(10.3879127634392,-1.54649815254238,1.98903575339036));
#689=CARTESIAN_POINT('Ctrl Pts',(10.3123244579492,-1.98906106473936,1.54647284119338));
#690=CARTESIAN_POINT('Ctrl Pts',(10.2717715309042,-2.18125167126293,1.26617211023766));
#691=CARTESIAN_POINT('Ctrl Pts',(10.2141758464362,-2.43675223224773,0.650606423438285));
#692=CARTESIAN_POINT('Ctrl Pts',(10.1980390271856,-2.5,0.315231231296859));
#693=CARTESIAN_POINT('Ctrl Pts',(10.1980390271856,-2.5,6.93889390390723E-17));
#694=CARTESIAN_POINT('Origin',(0.,0.,0.));
#695=CARTESIAN_POINT('',(-10.1980390271856,-2.5,0.));
#696=CARTESIAN_POINT('',(-10.1980390271856,2.5,0.));
#697=CARTESIAN_POINT('Ctrl Pts',(-10.1980390271856,-2.5,0.));
#698=CARTESIAN_POINT('Ctrl Pts',(-10.1980390271856,-2.5,0.315231231296859));
#699=CARTESIAN_POINT('Ctrl Pts',(-10.2141758464362,-2.43675223224773,0.650606423438285));
#700=CARTESIAN_POINT('Ctrl Pts',(-10.2717715309042,-2.18125167126293,1.26617211023766));
#701=CARTESIAN_POINT('Ctrl Pts',(-10.3123244579492,-1.98906106473936,1.54647284119338));
#702=CARTESIAN_POINT('Ctrl Pts',(-10.3879127634392,-1.54649815254238,1.98903575339036));
#703=CARTESIAN_POINT('Ctrl Pts',(-10.4279580282793,-1.26618682639497,2.18124612059984));
#704=CARTESIAN_POINT('Ctrl Pts',(-10.4843825988673,-0.650583763475824,2.43676108010983));
#705=CARTESIAN_POINT('Ctrl Pts',(-10.5,-0.315195175535373,2.5));
#706=CARTESIAN_POINT('Ctrl Pts',(-10.5,0.315195175535372,2.5));
#707=CARTESIAN_POINT('Ctrl Pts',(-10.4843825988673,0.650583763475823,2.43676108010983));
#708=CARTESIAN_POINT('Ctrl Pts',(-10.4279580282793,1.26618682639497,2.18124612059984));
#709=CARTESIAN_POINT('Ctrl Pts',(-10.3879127634392,1.54649815254238,1.98903575339036));
#710=CARTESIAN_POINT('Ctrl Pts',(-10.3123244579492,1.98906106473936,1.54647284119338));
#711=CARTESIAN_POINT('Ctrl Pts',(-10.2717715309042,2.18125167126293,1.26617211023766));
#712=CARTESIAN_POINT('Ctrl Pts',(-10.2141758464362,2.43675223224773,0.650606423438285));
#713=CARTESIAN_POINT('Ctrl Pts',(-10.1980390271856,2.5,0.315231231296859));
#714=CARTESIAN_POINT('Ctrl Pts',(-10.1980390271856,2.5,0.));
#715=CARTESIAN_POINT('',(0.,-2.5,0.));
#716=CARTESIAN_POINT('',(0.,2.5,0.));
#717=CARTESIAN_POINT('Origin',(0.,0.,0.));
#718=CARTESIAN_POINT('Origin',(0.,0.,0.));
#719=CARTESIAN_POINT('Origin',(0.,0.,30.));
#720=CARTESIAN_POINT('',(10.5,1.28587913910472E-15,30.));
#721=CARTESIAN_POINT('Origin',(0.,0.,30.));
#722=CARTESIAN_POINT('',(10.5,-1.28587913910472E-15,30.));
#723=CARTESIAN_POINT('Origin',(0.,0.,0.));
#724=CARTESIAN_POINT('Origin',(0.,0.,30.));
#725=CARTESIAN_POINT('Origin',(0.,0.,0.));
#726=UNCERTAINTY_MEASURE_WITH_UNIT(LENGTH_MEASURE(0.01),#730,
'DISTANCE_ACCURACY_VALUE',
'Maximum model space distance between geometric entities at asserted c
onnectivities');
#727=UNCERTAINTY_MEASURE_WITH_UNIT(LENGTH_MEASURE(0.01),#730,
'DISTANCE_ACCURACY_VALUE',
'Maximum model space distance between geometric entities at asserted c
onnectivities');
#728=(
GEOMETRIC_REPRESENTATION_CONTEXT(3)
GLOBAL_UNCERTAINTY_ASSIGNED_CONTEXT((#726))
GLOBAL_UNIT_ASSIGNED_CONTEXT((#730,#732,#733))
REPRESENTATION_CONTEXT('','3D')
);
#729=(
GEOMETRIC_REPRESENTATION_CONTEXT(3)
GLOBAL_UNCERTAINTY_ASSIGNED_CONTEXT((#727))
GLOBAL_UNIT_ASSIGNED_CONTEXT((#730,#732,#733))
REPRESENTATION_CONTEXT('','3D')
);
#730=(
LENGTH_UNIT()
NAMED_UNIT(*)
SI_UNIT(.MILLI.,.METRE.)
);
#731=(
LENGTH_UNIT()
NAMED_UNIT(*)
SI_UNIT($,.METRE.)
);
#732=(
NAMED_UNIT(*)
PLANE_ANGLE_UNIT()
SI_UNIT($,.RADIAN.)
);
#733=(
NAMED_UNIT(*)
SI_UNIT($,.STERADIAN.)
SOLID_ANGLE_UNIT()
);
#734=SHAPE_DEFINITION_REPRESENTATION(#735,#736);
#735=PRODUCT_DEFINITION_SHAPE('',$,#738);
#736=SHAPE_REPRESENTATION('',(#300),#728);
#737=PRODUCT_DEFINITION_CONTEXT('part definition',#742,'design');
#738=PRODUCT_DEFINITION('Suction Adapter Vertical',
'Suction Adapter Vertical v2',#739,#737);
#739=PRODUCT_DEFINITION_FORMATION('',$,#744);
#740=PRODUCT_RELATED_PRODUCT_CATEGORY('Suction Adapter Vertical v2',
'Suction Adapter Vertical v2',(#744));
#741=APPLICATION_PROTOCOL_DEFINITION('international standard',
'ap242_managed_model_based_3d_engineering',2011,#742);
#742=APPLICATION_CONTEXT('Managed model based 3d engineering');
#743=PRODUCT_CONTEXT('part definition',#742,'mechanical');
#744=PRODUCT('Suction Adapter Vertical','Suction Adapter Vertical v2',$,
(#743));
#745=PRESENTATION_STYLE_ASSIGNMENT((#746));
#746=SURFACE_STYLE_USAGE(.BOTH.,#747);
#747=SURFACE_SIDE_STYLE('',(#748));
#748=SURFACE_STYLE_FILL_AREA(#749);
#749=FILL_AREA_STYLE('Steel - Satin',(#750));
#750=FILL_AREA_STYLE_COLOUR('Steel - Satin',#751);
#751=COLOUR_RGB('Steel - Satin',0.627450980392157,0.627450980392157,0.627450980392157);
ENDSEC;
END-ISO-10303-21;
